<svg xmlns="http://www.w3.org/2000/svg" viewBox="0 0 81.40918 36.54004"><title>logo-type</title><g id="b8300ca7-7a22-4a3f-9fec-37fb90a9653f" data-name="Layer 2"><g id="4a2280da-dce0-4dc2-b02a-7a3c930acd25" data-name="Layer 1"><path d="M.25488.84766A26.76463,26.76463,0,0,0,4.46777.1123h.11328a4.72892,4.72892,0,0,1,.36719,1.89454V2.2334A5.4725,5.4725,0,0,1,9.21777,0a3.41625,3.41625,0,0,1,3.50586,2.46C14.251.70605,15.52344,0,17.16309,0a3.75937,3.75937,0,0,1,3.22265,1.583c.39649.73535.45313,1.07422.45313,2.96875V8.14258c.05664,2.5166.19726,2.71484,1.668,2.77148h.16992v.93262H16.37109v-.93262h.11329c1.38574-.085,1.498-.2832,1.498-2.77148V4.12793c0-1.89453-.53711-2.6582-1.86523-2.6582-1.10352,0-2.03614.65039-3.252,2.20605v4.4668c0,2.43164.14161,2.68652,1.44239,2.77148h.084v.93262H8.36914v-.93262h.1416c1.38574-.085,1.499-.2832,1.499-2.77148V4.58008a4.80782,4.80782,0,0,0-.31153-2.29,1.87906,1.87906,0,0,0-1.583-.84863A3.36434,3.36434,0,0,0,5.627,2.71387c-.62207.707-.62207.707-.707.792V8.14258c0,2.43164.1416,2.68652,1.4707,2.77148h.11231v.93262H.2832v-.93262H.39648c1.49805-.02832,1.69629-.33984,1.69629-2.77148V4.52344C2.03613,2.12012,1.83789,1.80957.39648,1.78125H.25488Z"/><path d="M36.84473,9.61328a2.53776,2.53776,0,0,1-2.77149,2.5166A2.44018,2.44018,0,0,1,31.501,10.32031a8.1262,8.1262,0,0,1-4.60938,1.80957c-1.72461,0-2.96875-1.04687-2.96875-2.48828,0-1.10351.53711-1.89453,1.80957-2.71484a33.679,33.679,0,0,1,4.043-2.00781L31.416,4.26953V3.53418a3.30987,3.30987,0,0,0-.25489-1.668A2.36717,2.36717,0,0,0,29.0127.93262a2.91418,2.91418,0,0,0-1.72461.48047A1.822,1.822,0,0,0,26.86328,2.46c-.16894.876-.62207,1.32813-1.38476,1.32813a1.04432,1.04432,0,0,1-1.13184-1.01758A2.59331,2.59331,0,0,1,25.90234.791,7.84,7.84,0,0,1,29.63477,0a5.09723,5.09723,0,0,1,3.84472,1.21582c.62207.62207.76367,1.13086.76367,2.65723V8.708c0,1.6123.19825,2.06445.84864,2.06445.50879,0,.876-.4248,1.01758-1.15918ZM30.7373,5.5127c-2.79882,1.13183-3.8457,2.06445-3.8457,3.50683a1.6425,1.6425,0,0,0,1.584,1.75293A5.16246,5.16246,0,0,0,31.416,9.30176V5.23047Z"/><path d="M37.77246.876A23.79465,23.79465,0,0,0,41.98535.1123h.11328a4.82233,4.82233,0,0,1,.36719,1.89454v.25488A5.57874,5.57874,0,0,1,46.93359,0a3.60821,3.60821,0,0,1,3.1377,1.583,4.98159,4.98159,0,0,1,.48144,2.85547v3.7041c.05567,2.5166.19727,2.71484,1.668,2.77148h.169v.93262H45.915v-.93262h.22656c1.41406-.085,1.55469-.31152,1.55469-2.77148V3.50586a1.91086,1.91086,0,0,0-1.97852-2.12109c-1.1875,0-2.23437.707-3.28027,2.17773V8.14258c0,2.46.1416,2.71484,1.583,2.77148h.1416v.93262h-6.418v-.93262h.1416c1.498-.02832,1.69629-.33984,1.72461-2.77148V4.52344c-.05664-2.40332-.25488-2.68555-1.72461-2.74219h-.11328Z"/><path d="M53.51367.876A23.79465,23.79465,0,0,0,57.72656.1123h.11328A4.82233,4.82233,0,0,1,58.207,2.00684v.25488A5.57874,5.57874,0,0,1,62.6748,0a3.60821,3.60821,0,0,1,3.1377,1.583A4.98158,4.98158,0,0,1,66.294,4.43848v3.7041c.05566,2.5166.19726,2.71484,1.668,2.77148h.16993v.93262H61.65625v-.93262h.22656c1.41407-.085,1.55469-.31152,1.55469-2.77148V3.50586A1.91086,1.91086,0,0,0,61.459,1.38477c-1.1875,0-2.23437.707-3.28027,2.17773V8.14258c0,2.46.1416,2.71484,1.583,2.77148h.1416v.93262h-6.418v-.93262h.1416c1.498-.02832,1.69629-.33984,1.72461-2.77148V4.52344c-.05664-2.40332-.25488-2.68555-1.72461-2.74219h-.11328Z"/><path d="M73.63379.45215v.9043l-.169.02832c-.65039.02832-1.01855.2832-1.01855.67871,0,.22656.02832.33984.39648,1.13086l2.91211,5.88183L78.10156,3.5625c.02832-.05664.19824-.4248.36719-.82031a1.4806,1.4806,0,0,0,.19824-.67871c0-.45215-.36719-.67871-1.15918-.707h-.25488V.45215h4.15625v.9043l-.14063.02832c-1.07519.16992-1.4707.65039-2.375,2.7998L73.917,15.63574c-1.01758,2.40332-1.80957,3.251-2.91211,3.251a1.20674,1.20674,0,0,1-1.30078-1.1875c0-.7627.48047-1.27246,1.583-1.668,1.44238-.50879,1.78125-.76367,2.20605-1.78125l.81934-2.06445L69.81738,3.251c-.82031-1.61133-1.04687-1.83789-1.92285-1.86621L67.668,1.35645V.45215Z"/><path d="M4.97656,32.38379c.05664,2.43164.25489,2.74316,1.69629,2.77148h.25488v.93262H0v-.93262H.4248c1.498-.02832,1.668-.33984,1.72461-2.77148v-3.7041c-.02832-2.26172-.2832-2.68555-1.78125-2.68555H0v-.90527a36.67843,36.67843,0,0,0,4.72168-.84766h.25488Zm.22656-13.65625A1.79547,1.79547,0,1,1,3.39355,16.918,1.81075,1.81075,0,0,1,5.20312,18.72754Z"/><path d="M8.56348,17.709a27.39917,27.39917,0,0,0,4.43945-.76269h.25391V29.75488l1.15918-.82031a25.37033,25.37033,0,0,0,2.48828-2.03613,1.01609,1.01609,0,0,0,.36816-.707c0-.36719-.31152-.56543-.93359-.56543H16.1416v-.93262h5.20215V25.626h-.11328c-1.15918.085-1.95117.53711-3.90137,2.17773-.50976.42383-.59375.48047-1.1875.93262l3.67481,4.46777c1.24414,1.49805,1.69726,1.83789,2.43164,1.95117h.1416v.93262h-6.248v-.93262h.14063c.73535,0,1.13086-.19824,1.13086-.5664,0-.19727,0-.19727-.791-1.1875L14.04883,30.292l-.792.59375v1.498c0,2.40332.16992,2.71484,1.499,2.77148h.11328v.93262H8.39355v-.93262h.31153c1.52637-.05664,1.668-.25488,1.72461-2.77148V21.0459c.02832-1.95117-.28321-2.375-1.72461-2.43164h-.1416Z"/><path d="M35.82031,30.4043a6.085,6.085,0,0,1-6.248,6.13574c-3.76075,0-6.47559-2.57227-6.47559-6.10742a6.07683,6.07683,0,0,1,6.3623-6.19141A6.06976,6.06976,0,0,1,35.82031,30.4043Zm-9.585,0c0,3.61914.96094,5.20312,3.22363,5.20312,2.26172,0,3.22266-1.55566,3.22266-5.28711,0-3.53515-.98926-5.11816-3.22266-5.11816C27.19629,25.20215,26.23535,26.75684,26.23535,30.4043Z"/><path d="M37.25684,25.08887a26.76627,26.76627,0,0,0,4.21289-.73535H41.583a4.729,4.729,0,0,1,.36719,1.89453v.22656a5.47248,5.47248,0,0,1,4.26953-2.2334,3.41625,3.41625,0,0,1,3.50586,2.46c1.52734-1.7539,2.7998-2.46,4.43945-2.46a3.75939,3.75939,0,0,1,3.22266,1.583c.39648.73535.45312,1.07422.45312,2.96875v3.59082c.05664,2.5166.19727,2.71484,1.668,2.77148h.16992v.93262H53.37305v-.93262h.11328c1.38574-.085,1.498-.2832,1.498-2.77148V28.36914c0-1.89453-.53711-2.6582-1.86524-2.6582-1.10352,0-2.03613.65039-3.252,2.206v4.4668c0,2.43164.1416,2.68652,1.44238,2.77148h.084v.93262H45.37109v-.93262h.14161c1.38574-.085,1.499-.2832,1.499-2.77148v-3.5625a4.80786,4.80786,0,0,0-.31152-2.29,1.87907,1.87907,0,0,0-1.583-.84863,3.36768,3.36768,0,0,0-2.48828,1.27246c-.62207.707-.62207.707-.707.792v4.63672c0,2.43164.1416,2.68652,1.4707,2.77148h.1123v.93262H37.28516v-.93262h.11328c1.498-.02832,1.69629-.33984,1.69629-2.77148V28.76465c-.05664-2.40332-.25489-2.71387-1.69629-2.74219h-.1416Z"/><path d="M66.22363,32.38379c.05664,2.43164.25489,2.74316,1.69629,2.77148h.25488v.93262H61.24707v-.93262h.42481c1.498-.02832,1.668-.33984,1.7246-2.77148v-3.7041c-.02832-2.26172-.2832-2.68555-1.78125-2.68555h-.36816v-.90527a36.67843,36.67843,0,0,0,4.72168-.84766h.25488Zm.22657-13.65625A1.79547,1.79547,0,1,1,64.64062,16.918,1.81075,1.81075,0,0,1,66.4502,18.72754Z"/></g></g></svg>