<svg xmlns="http://www.w3.org/2000/svg" viewBox="0 0 188.12326 82.6448"><title>logo-wide</title><g id="ea2004ad-9fb2-4611-99f0-0213e17cbe35" data-name="Layer 2"><g id="f2985e4b-b4c8-4f2f-b73d-9edc8a2d1087" data-name="Layer 1"><path d="M78.41736,34.39517a36.18148,36.18148,0,0,0,5.69507-.99407h.15313a6.39257,6.39257,0,0,1,.49637,2.56107v.30627a7.39778,7.39778,0,0,1,5.77163-3.01915,4.61813,4.61813,0,0,1,4.73929,3.32542c2.06469-2.371,3.78483-3.32542,6.00134-3.32542a5.082,5.082,0,0,1,4.35644,2.13994c.536.99406.61255,1.45215.61255,4.01321v4.85414c.07657,3.402.26666,3.67,2.25479,3.74654h.2297v1.26073h-8.52411V48.00312h.15313c1.87328-.11485,2.02509-.38284,2.02509-3.74654V38.8295c0-2.56106-.72607-3.59341-2.52146-3.59341-1.49175,0-2.75248.87921-4.39605,2.98219v6.0383c0,3.28714.19142,3.63169,1.94984,3.74654h.11353v1.26073H89.38637V48.00312h.19142c1.87327-.11485,2.0264-.38284,2.0264-3.74654V39.44072a6.49926,6.49926,0,0,0-.42112-3.09571,2.54016,2.54016,0,0,0-2.13994-1.1472,4.548,4.548,0,0,0-3.3637,1.72013c-.84093.95578-.84093.95578-.95578,1.07063v6.268c0,3.28714.19142,3.63169,1.98812,3.74654h.15182v1.26073H78.45564V48.00312h.15314c2.02509-.03828,2.29308-.4594,2.29308-3.74654V39.36416c-.07657-3.24886-.34456-3.66866-2.29308-3.70694h-.19142Z"/><path d="M127.8802,46.2447a3.43059,3.43059,0,0,1-3.74655,3.402,3.29868,3.29868,0,0,1-3.47723-2.44621,10.98512,10.98512,0,0,1-6.231,2.44621c-2.33136,0-4.01321-1.41518-4.01321-3.3637,0-1.49176.72607-2.56107,2.44621-3.67a45.52654,45.52654,0,0,1,5.46536-2.7142l2.21783-.87789v-.99406a4.4744,4.4744,0,0,0-.34456-2.25479,3.2,3.2,0,0,0-2.9043-1.26205,3.93962,3.93962,0,0,0-2.33136.6495,2.46329,2.46329,0,0,0-.57426,1.41519c-.22838,1.18416-.84092,1.79538-1.87195,1.79538a1.41173,1.41173,0,0,1-1.53-1.37558,3.5057,3.5057,0,0,1,2.103-2.67591,10.59823,10.59823,0,0,1,5.04556-1.06931c2.44621,0,4.12806.53465,5.19737,1.64357.84093.84092,1.03235,1.52871,1.03235,3.59209v6.536c0,2.17954.268,2.79076,1.1472,2.79076.68779,0,1.18416-.57426,1.37558-1.567Zm-8.25613-5.54325c-3.78351,1.53-5.19869,2.79077-5.19869,4.74061a2.22036,2.22036,0,0,0,2.14126,2.36964c1.06931,0,2.40792-.68779,3.97493-1.98812V40.31993Z"/><path d="M129.13433,34.43345a32.16667,32.16667,0,0,0,5.69506-1.03235h.15314a6.51907,6.51907,0,0,1,.49637,2.56107v.34455a7.54143,7.54143,0,0,1,6.03962-3.05743,4.87764,4.87764,0,0,1,4.2416,2.13994c.536.95578.65082,1.64357.65082,3.86007v5.00728c.07525,3.402.26667,3.67,2.25479,3.74654h.22839v1.26073h-8.7525V48.00312h.30627c1.91156-.11485,2.10166-.42112,2.10166-3.74654v-6.268a2.58314,2.58314,0,0,0-2.6746-2.86733c-1.60528,0-3.02047.95578-4.43433,2.9439v6.19144c0,3.32542.19142,3.67,2.13994,3.74654h.19141v1.26073H129.096V48.00312h.19142c2.02509-.03828,2.29308-.4594,2.33136-3.74654V39.36416c-.07656-3.24886-.34455-3.63038-2.33136-3.70694h-.15313Z"/><path d="M150.41359,34.43345a32.16682,32.16682,0,0,0,5.69507-1.03235h.15313a6.51889,6.51889,0,0,1,.49637,2.56107v.34455a7.54143,7.54143,0,0,1,6.03962-3.05743,4.87764,4.87764,0,0,1,4.2416,2.13994c.536.95578.65083,1.64357.65083,3.86007v5.00728c.07524,3.402.26666,3.67,2.25479,3.74654h.2297v1.26073h-8.75382V48.00312h.30627c1.91156-.11485,2.10166-.42112,2.10166-3.74654v-6.268a2.58313,2.58313,0,0,0-2.67459-2.86733c-1.60529,0-3.02047.95578-4.43434,2.9439v6.19144c0,3.32542.19142,3.67,2.13994,3.74654h.19142v1.26073h-8.67593V48.00312h.19142c2.02509-.03828,2.29307-.4594,2.33136-3.74654V39.36416c-.07657-3.24886-.34456-3.63038-2.33136-3.70694h-.15314Z"/><path d="M177.61235,33.86051V35.083l-.22839.03828c-.87921.03828-1.3769.38284-1.3769.91749,0,.30628.03828.45941.536,1.52872l3.93664,7.95118,3.17229-7.45349c.03828-.07657.268-.57426.49637-1.10891a2.00146,2.00146,0,0,0,.268-.9175c0-.61122-.49637-.91749-1.567-.95577h-.34455V33.86051h5.61849V35.083l-.19009.03828c-1.45347.2297-1.98813.87921-3.21057,3.78483L177.99518,54.386c-1.37558,3.24885-2.44621,4.39473-3.93664,4.39473a1.63129,1.63129,0,0,1-1.75842-1.60529c0-1.031.64951-1.72013,2.13994-2.25479,1.94984-.68779,2.40793-1.03234,2.98219-2.40792l1.10759-2.79077L172.45326,37.644c-1.10892-2.17822-1.41519-2.4845-2.59935-2.52278l-.30627-.03828V33.86051Z"/><path d="M84.80022,77.0263c.07656,3.28714.34455,3.70826,2.29307,3.74655h.34456v1.26073h-9.365V80.77285h.57426c2.02509-.03829,2.2548-.45941,2.33136-3.74655V72.019c-.03828-3.05744-.38284-3.63037-2.40792-3.63037h-.4977V67.16489A49.58307,49.58307,0,0,0,84.45566,66.019h.34456Zm.30627-18.46077a2.42715,2.42715,0,1,1-2.44621-2.44621A2.4478,2.4478,0,0,1,85.10649,58.56553Z"/><path d="M89.64907,57.18863a37.04092,37.04092,0,0,0,6.00134-1.031h.34324V73.4725l1.567-1.10892a34.295,34.295,0,0,0,3.3637-2.75248,1.37353,1.37353,0,0,0,.49769-.95578c0-.49637-.42112-.76435-1.26205-.76435h-.26666V66.63024h7.03236V67.891h-.15314c-1.567.11485-2.63763.72607-5.27394,2.9439-.68911.57294-.80264.6495-1.60528,1.26073l4.96767,6.03962c1.68185,2.02508,2.29439,2.48449,3.28713,2.63763h.19142v1.26073H99.89333V80.77285h.1901c.99406,0,1.52871-.268,1.52871-.76568,0-.26667,0-.26667-1.06931-1.60529l-3.47856-4.20331-1.07062.80265V77.0263c0,3.24886.2297,3.67,2.0264,3.74655h.15314v1.26073H89.41937V80.77285h.42112c2.06338-.07657,2.25479-.34456,2.33136-3.74655V61.69953c.03829-2.63763-.38284-3.21057-2.33136-3.28714h-.19142Z"/><path d="M126.49538,74.35039a8.22578,8.22578,0,0,1-8.44623,8.29441c-5.08384,0-8.75382-3.47724-8.75382-8.25613A8.21477,8.21477,0,0,1,117.896,66.019C122.865,66.019,126.49538,69.53453,126.49538,74.35039Zm-12.95713,0c0,4.89242,1.299,7.03368,4.35776,7.03368,3.05744,0,4.35645-2.103,4.35645-7.14721,0-4.77889-1.3373-6.91883-4.35645-6.91883C114.83726,67.318,113.53825,69.41968,113.53825,74.35039Z"/><path d="M128.4373,67.16489a36.18272,36.18272,0,0,0,5.69506-.99406h.15314a6.39273,6.39273,0,0,1,.49637,2.56106v.30627A7.39781,7.39781,0,0,1,140.5535,66.019a4.61814,4.61814,0,0,1,4.73929,3.32542c2.06469-2.371,3.78483-3.32542,6.00133-3.32542a5.082,5.082,0,0,1,4.35645,2.13994c.536.99406.61254,1.45215.61254,4.01321V77.0263c.07657,3.402.26667,3.67,2.25479,3.74655h.22971v1.26073h-8.52412V80.77285h.15314c1.87327-.11485,2.02509-.38284,2.02509-3.74655V71.59923c0-2.56107-.72608-3.59341-2.52146-3.59341-1.49176,0-2.75248.87921-4.39605,2.98218v6.0383c0,3.28714.19142,3.6317,1.94984,3.74655h.11353v1.26073H139.4063V80.77285h.19142c1.87327-.11485,2.02641-.38284,2.02641-3.74655V72.21045a6.49931,6.49931,0,0,0-.42112-3.09572,2.54017,2.54017,0,0,0-2.13994-1.1472,4.55256,4.55256,0,0,0-3.36371,1.72014c-.84092.95578-.84092.95578-.95578,1.07063v6.268c0,3.28714.19142,3.6317,1.98813,3.74655h.15181v1.26073h-8.40794V80.77285h.15314c2.02508-.03829,2.29307-.45941,2.29307-3.74655V72.13388c-.07657-3.24885-.34455-3.66866-2.29307-3.70694h-.19142Z"/><path d="M167.59516,77.0263c.07656,3.28714.34455,3.70826,2.29307,3.74655h.34456v1.26073h-9.365V80.77285h.57426c2.02508-.03829,2.25479-.45941,2.33135-3.74655V72.019c-.03828-3.05744-.38283-3.63037-2.40792-3.63037h-.49769V67.16489A49.58323,49.58323,0,0,0,167.2506,66.019h.34456Zm.30627-18.46077a2.42715,2.42715,0,1,1-2.44621-2.44621A2.4478,2.4478,0,0,1,167.90143,58.56553Z"/><polygon points="33.95 24.164 33.95 19.331 27.344 19.331 27.344 14.498 50.433 14.498 50.433 9.666 12.748 9.666 12.748 4.833 7.553 4.833 7.553 0 0 0 0 4.833 0 9.666 0 14.498 0 19.331 0 24.164 0 28.997 0 33.83 64.23 33.83 64.23 28.997 80.902 28.997 80.902 24.164 33.95 24.164"/></g></g></svg>