<?xml version="1.0" encoding="utf-8"?>
<!-- Generator: Adobe Illustrator 23.0.2, SVG Export Plug-In . SVG Version: 6.00 Build 0)  -->
<svg version="1.1" id="Layer_1" xmlns="http://www.w3.org/2000/svg" xmlns:xlink="http://www.w3.org/1999/xlink" x="0px" y="0px"
	 viewBox="0 0 81.4 118.2" style="enable-background:new 0 0 81.4 118.2;" xml:space="preserve">
<style type="text/css">
	.st0{fill:#F2F2F2;}
</style>
<title>logo-master</title>
<g id="b70b493c-9b52-4ee6-9132-556f82d6ed40">
	<g id="a97eacbc-5f2c-4e24-be51-94ad3a061e63">
		<path class="st0" d="M20.8,89.8v-3.6c0-1.9-0.1-2.2-0.5-3c-0.7-1-1.9-1.6-3.2-1.6c-1.6,0-2.9,0.7-4.4,2.5
			c-0.4-1.5-1.9-2.6-3.5-2.5c-1.7,0-3.3,0.9-4.3,2.2v-0.2c0-0.7-0.1-1.3-0.4-1.9H4.5c-1.4,0.4-2.8,0.6-4.2,0.7v0.9h0.1
			c1.4,0,1.6,0.3,1.7,2.7v3.6c0,2.4-0.2,2.7-1.7,2.8H0.3v0.9h6.2v-0.9H6.4c-1.3-0.1-1.5-0.3-1.5-2.8v-4.6C5,85.1,5,85.1,5.6,84.4
			c0.6-0.8,1.5-1.2,2.5-1.3c0.6,0,1.2,0.3,1.6,0.8c0.3,0.7,0.4,1.5,0.3,2.3v3.6c0,2.5-0.1,2.7-1.5,2.8H8.4v0.9h6v-0.9h-0.1
			c-1.3-0.1-1.4-0.3-1.4-2.8v-4.5c1.2-1.6,2.1-2.2,3.3-2.2c1.3,0,1.9,0.8,1.9,2.7v4c0,2.5-0.1,2.7-1.5,2.8h-0.1v0.9h6.3v-0.9h-0.2
			C21,92.5,20.9,92.3,20.8,89.8z"/>
		<path class="st0" d="M35.1,92.5c-0.7,0-0.8-0.5-0.8-2.1v-4.8c0-1.5-0.1-2-0.8-2.7c-1.1-0.9-2.5-1.4-3.8-1.2
			c-1.3,0-2.6,0.2-3.7,0.8c-0.8,0.3-1.4,1.1-1.6,2c0,0.6,0.5,1,1.1,1c0,0,0,0,0.1,0c0.8,0,1.2-0.5,1.4-1.3c0-0.4,0.2-0.8,0.4-1
			c0.5-0.3,1.1-0.5,1.7-0.5c0.8-0.1,1.6,0.3,2.1,0.9c0.2,0.5,0.3,1.1,0.3,1.7v0.7l-1.6,0.6c-1.4,0.6-2.7,1.2-4,2
			c-1.3,0.8-1.8,1.6-1.8,2.7c0,1.4,1.2,2.5,3,2.5c1.7-0.1,3.3-0.7,4.6-1.8c0.3,1.1,1.4,1.9,2.6,1.8c1.4,0.1,2.6-0.9,2.8-2.3
			c0-0.1,0-0.1,0-0.2h-0.7C36,92,35.6,92.5,35.1,92.5z M31.4,91c-0.8,0.8-1.8,1.3-2.9,1.5c-0.9,0-1.6-0.8-1.6-1.7c0,0,0,0,0-0.1
			c0-1.4,1-2.4,3.8-3.5l0.7-0.3L31.4,91z"/>
		<path class="st0" d="M46.1,92.6h-0.2v0.9h6.5v-0.9h-0.2c-1.5-0.1-1.6-0.3-1.7-2.8v-3.7c0.1-1,0-2-0.5-2.9c-0.7-1-1.9-1.6-3.1-1.6
			c-1.8,0-3.4,0.8-4.5,2.3v-0.3c0-0.6-0.1-1.3-0.4-1.9H42c-1.4,0.4-2.8,0.6-4.2,0.8v0.9h0.1c1.5,0.1,1.7,0.3,1.7,2.7v3.6
			c0,2.4-0.2,2.7-1.7,2.8h-0.1v0.9h6.4v-0.9H44c-1.4-0.1-1.6-0.3-1.6-2.8v-4.6c1-1.5,2.1-2.2,3.3-2.2c1.1,0,1.9,0.8,2,1.8
			c0,0.1,0,0.2,0,0.3v4.6C47.7,92.3,47.6,92.5,46.1,92.6z"/>
		<path class="st0" d="M58.2,89.8v-4.6c1-1.5,2.1-2.2,3.3-2.2c1.1,0,1.9,0.8,2,1.8c0,0.1,0,0.2,0,0.3v4.6c0,2.5-0.1,2.7-1.6,2.8
			h-0.2v0.9h6.5v-0.9H68c-1.5-0.1-1.6-0.3-1.7-2.8v-3.7c0.1-1,0-2-0.5-2.9c-0.7-1-1.9-1.6-3.1-1.6c-1.8,0-3.4,0.8-4.5,2.3v-0.3
			c0-0.6-0.1-1.3-0.4-1.9h-0.1c-1.4,0.4-2.8,0.6-4.2,0.8v0.9h0.1c1.5,0.1,1.7,0.3,1.7,2.7v3.6c0,2.4-0.2,2.7-1.7,2.8h-0.1v0.9h6.4
			v-0.9h-0.1C58.3,92.5,58.2,92.3,58.2,89.8z"/>
		<path class="st0" d="M77.3,82.1V83h0.3c0.8,0,1.2,0.3,1.2,0.7c0,0.2-0.1,0.5-0.2,0.7c-0.2,0.4-0.3,0.8-0.4,0.8l-2.3,5.5l-2.9-5.9
			c-0.4-0.8-0.4-0.9-0.4-1.1c0-0.4,0.4-0.7,1-0.7l0.2,0v-0.9h-6V83l0.2,0c0.9,0,1.1,0.3,1.9,1.9l4.5,8.9l-0.8,2.1
			c-0.4,1-0.8,1.3-2.2,1.8c-1.1,0.4-1.6,0.9-1.6,1.7c0,0.7,0.6,1.2,1.2,1.2c0,0,0.1,0,0.1,0c1.1,0,1.9-0.8,2.9-3.3l5-11.5
			c0.9-2.1,1.3-2.6,2.4-2.8l0.1,0v-0.9L77.3,82.1z"/>
		<path class="st0" d="M5,114.1v-8.1H4.7c-1.6,0.4-3.1,0.7-4.7,0.8v0.9h0.4c1.5,0,1.8,0.4,1.8,2.7v3.7c-0.1,2.4-0.2,2.7-1.7,2.8H0
			v0.9h6.9v-0.9H6.7C5.2,116.8,5,116.5,5,114.1z"/>
		<path class="st0" d="M5.2,100.4c0-1-0.8-1.8-1.8-1.8s-1.8,0.8-1.8,1.8c0,1,0.8,1.7,1.8,1.8C4.4,102.2,5.2,101.4,5.2,100.4
			C5.2,100.4,5.2,100.4,5.2,100.4z"/>
		<path class="st0" d="M19.8,114.9l-3.7-4.5c0.6-0.5,0.7-0.5,1.2-0.9c2-1.6,2.7-2.1,3.9-2.2h0.1v-0.9h-5.2v0.9h0.2
			c0.6,0,0.9,0.2,0.9,0.6c0,0.3-0.2,0.5-0.4,0.7c-0.8,0.7-1.6,1.4-2.5,2l-1.2,0.8V98.6H13c-1.5,0.4-2.9,0.6-4.4,0.8v0.9h0.1
			c1.4,0.1,1.8,0.5,1.7,2.4v11.3c-0.1,2.5-0.2,2.7-1.7,2.8H8.4v0.9h6.5v-0.9h-0.1c-1.3-0.1-1.5-0.4-1.5-2.8v-1.5L14,112l2.6,3.1
			c0.8,1,0.8,1,0.8,1.2c0,0.4-0.4,0.6-1.1,0.6h-0.1v0.9h6.2v-0.9h-0.1C21.5,116.7,21.1,116.4,19.8,114.9z"/>
		<path class="st0" d="M29.5,105.9c-3.4-0.2-6.2,2.4-6.4,5.8c0,0.1,0,0.3,0,0.4c0,3.5,2.7,6.1,6.5,6.1c3.4,0.1,6.2-2.7,6.2-6.1
			c0.1-3.4-2.7-6.2-6.1-6.2C29.7,105.9,29.6,105.9,29.5,105.9z M29.5,117.3c-2.3,0-3.2-1.6-3.2-5.2c0-3.6,1-5.2,3.2-5.2
			c2.2,0,3.2,1.6,3.2,5.1C32.7,115.7,31.7,117.3,29.5,117.3z"/>
		<path class="st0" d="M57.8,114.1v-3.6c0-1.9-0.1-2.2-0.5-3c-0.7-1-1.9-1.6-3.2-1.6c-1.6,0-2.9,0.7-4.4,2.5
			c-0.4-1.5-1.9-2.6-3.5-2.5c-1.7,0-3.3,0.9-4.3,2.2v-0.2c0-0.7-0.1-1.3-0.4-1.9h-0.1c-1.4,0.4-2.8,0.6-4.2,0.7v0.9h0.1
			c1.4,0,1.6,0.3,1.7,2.7v3.6c0,2.4-0.2,2.7-1.7,2.8h-0.1v0.9h6.2v-0.9h-0.1c-1.3-0.1-1.5-0.3-1.5-2.8v-4.6c0.1-0.1,0.1-0.1,0.7-0.8
			c0.6-0.8,1.5-1.2,2.5-1.3c0.6,0,1.2,0.3,1.6,0.8c0.3,0.7,0.4,1.5,0.3,2.3v3.6c0,2.5-0.1,2.7-1.5,2.8h-0.1v0.9h6v-0.9h-0.1
			c-1.3-0.1-1.4-0.3-1.4-2.8v-4.5c1.2-1.6,2.1-2.2,3.3-2.2c1.3,0,1.9,0.8,1.9,2.7v4c0,2.5-0.1,2.7-1.5,2.8h-0.1v0.9h6.3v-0.9h-0.2
			C58,116.8,57.9,116.6,57.8,114.1z"/>
		<path class="st0" d="M62.9,100.4c0,1,0.8,1.8,1.8,1.8c1,0,1.8-0.8,1.8-1.8c0-1-0.8-1.8-1.8-1.8c0,0,0,0,0,0
			C63.7,98.6,62.9,99.4,62.9,100.4z"/>
		<path class="st0" d="M66.2,114.1v-8.1H66c-1.6,0.4-3.1,0.7-4.7,0.8v0.9h0.4c1.5,0,1.8,0.4,1.8,2.7v3.7c-0.1,2.4-0.2,2.7-1.7,2.8
			h-0.4v0.9h6.9v-0.9h-0.3C66.5,116.8,66.3,116.5,66.2,114.1z"/>
		<polygon class="st0" points="64.5,67.7 81.1,67.7 81.1,62.8 34.2,62.8 34.2,58 27.6,58 27.6,53.2 50.7,53.2 50.7,48.3 13,48.3 
			13,43.5 7.8,43.5 7.8,38.7 0.2,38.7 0.2,43.5 0.2,48.3 0.2,53.2 0.2,58 0.2,62.8 0.2,67.7 0.2,72.5 64.5,72.5 		"/>
		<rect x="64.5" y="29" class="st0" width="16.7" height="4.8"/>
		<polygon class="st0" points="13,9.7 50.7,9.7 50.7,14.5 27.6,14.5 27.6,19.3 34.2,19.3 34.2,24.2 81.1,24.2 81.1,19.3 81.1,14.5 
			81.1,9.7 81.1,4.8 81.1,0 7.8,0 7.8,4.8 13,4.8 		"/>
	</g>
</g>
</svg>
