<svg xmlns="http://www.w3.org/2000/svg" viewBox="0 0 197.81301 72.96379"><title>logo-wide</title><g id="f55c3a74-cb94-4aa7-946e-af456a2ad735" data-name="Layer 2"><g id="b4d3cd8a-0174-4ad0-a80f-bc80d1f7403d" data-name="Layer 1"><path d="M88.1071,24.71416a36.18267,36.18267,0,0,0,5.69507-.99406h.15313a6.39257,6.39257,0,0,1,.49638,2.56106v.30627a7.39778,7.39778,0,0,1,5.77163-3.01915,4.61815,4.61815,0,0,1,4.73929,3.32542c2.06469-2.371,3.78482-3.32542,6.00133-3.32542a5.082,5.082,0,0,1,4.35645,2.13994c.536.99406.61254,1.45215.61254,4.01321v4.85414c.07657,3.402.26667,3.67,2.25479,3.74655h.22971v1.26073H109.8933V38.32212h.15314c1.87327-.11485,2.02509-.38284,2.02509-3.74655V29.1485c0-2.56107-.72608-3.59341-2.52146-3.59341-1.49176,0-2.75249.87921-4.39606,2.98218v6.0383c0,3.28714.19142,3.6317,1.94985,3.74655h.11353v1.26073H99.07611V38.32212h.19142c1.87327-.11485,2.02641-.38284,2.02641-3.74655V29.75972a6.49931,6.49931,0,0,0-.42112-3.09572,2.54017,2.54017,0,0,0-2.13994-1.1472,4.548,4.548,0,0,0-3.36371,1.72014c-.84093.95578-.84093.95578-.95578,1.07063v6.268c0,3.28714.19142,3.6317,1.98813,3.74655h.15181v1.26073H88.14539V38.32212h.15313c2.02509-.03829,2.29308-.45941,2.29308-3.74655V29.68315c-.07657-3.24885-.34456-3.66866-2.29308-3.70694H88.1071Z"/><path d="M137.56994,36.5637a3.43059,3.43059,0,0,1-3.74654,3.402,3.2987,3.2987,0,0,1-3.47724-2.44621,10.98516,10.98516,0,0,1-6.231,2.44621c-2.33136,0-4.01321-1.41519-4.01321-3.36371,0-1.49175.72607-2.56106,2.44621-3.67a45.52966,45.52966,0,0,1,5.46536-2.71419l2.21783-.87789v-.99407a4.47442,4.47442,0,0,0-.34456-2.25479,3.2,3.2,0,0,0-2.90429-1.262,3.9395,3.9395,0,0,0-2.33136.64951,2.46312,2.46312,0,0,0-.57426,1.41518c-.22839,1.18417-.84093,1.79539-1.87195,1.79539a1.41173,1.41173,0,0,1-1.53-1.37558,3.5057,3.5057,0,0,1,2.103-2.67592,10.59835,10.59835,0,0,1,5.04556-1.06931c2.44621,0,4.12807.53466,5.19738,1.64357.84092.84093,1.03234,1.52872,1.03234,3.59209v6.536c0,2.17955.268,2.79077,1.1472,2.79077.68779,0,1.18416-.57426,1.37558-1.567Zm-8.25612-5.54325c-3.78351,1.53-5.1987,2.79076-5.1987,4.7406a2.22038,2.22038,0,0,0,2.14126,2.36965c1.06931,0,2.40793-.68779,3.97493-1.98813V30.63893Z"/><path d="M138.82407,24.75244a32.16607,32.16607,0,0,0,5.69507-1.03234h.15313a6.51884,6.51884,0,0,1,.49637,2.56106v.34456a7.54144,7.54144,0,0,1,6.03962-3.05744,4.87766,4.87766,0,0,1,4.2416,2.13994c.536.95578.65083,1.64357.65083,3.86008v5.00727c.07524,3.402.26666,3.67,2.25479,3.74655h.22838v1.26073h-8.7525V38.32212h.30627c1.91156-.11485,2.10166-.42113,2.10166-3.74655v-6.268a2.58314,2.58314,0,0,0-2.6746-2.86733c-1.60528,0-3.02047.95577-4.43433,2.9439v6.19143c0,3.32542.19142,3.67,2.13994,3.74655h.19142v1.26073h-8.67593V38.32212h.19142c2.02509-.03829,2.29307-.45941,2.33136-3.74655V29.68315c-.07657-3.24885-.34456-3.63037-2.33136-3.70694h-.15314Z"/><path d="M160.10334,24.75244a32.1661,32.1661,0,0,0,5.69506-1.03234h.15314a6.519,6.519,0,0,1,.49637,2.56106v.34456a7.54144,7.54144,0,0,1,6.03962-3.05744,4.87763,4.87763,0,0,1,4.24159,2.13994c.536.95578.65083,1.64357.65083,3.86008v5.00727c.07525,3.402.26667,3.67,2.25479,3.74655h.22971v1.26073h-8.75382V38.32212h.30627c1.91155-.11485,2.10165-.42113,2.10165-3.74655v-6.268a2.58313,2.58313,0,0,0-2.67459-2.86733c-1.60529,0-3.02047.95577-4.43434,2.9439v6.19143c0,3.32542.19142,3.67,2.13994,3.74655h.19142v1.26073h-8.67593V38.32212h.19142c2.02509-.03829,2.29308-.45941,2.33136-3.74655V29.68315c-.07657-3.24885-.34455-3.63037-2.33136-3.70694h-.15313Z"/><path d="M187.30209,24.17951V25.402l-.22838.03829c-.87921.03828-1.37691.38283-1.37691.91749,0,.30627.03829.45941.536,1.52872l3.93664,7.95117,3.17229-7.45348c.03828-.07657.268-.57426.49637-1.10892a2.00145,2.00145,0,0,0,.268-.91749c0-.61122-.49637-.91749-1.567-.95578h-.34456V24.17951h5.6185V25.402l-.1901.03829c-1.45347.2297-1.98812.87921-3.21057,3.78482L187.68493,44.705c-1.37558,3.24886-2.44621,4.39473-3.93665,4.39473a1.6313,1.6313,0,0,1-1.75842-1.60528c0-1.031.64951-1.72014,2.13994-2.25479,1.94984-.68779,2.40793-1.03235,2.98219-2.40793l1.10759-2.79077L182.143,27.963c-1.10891-2.17822-1.41519-2.48449-2.59935-2.52277l-.30627-.03829V24.17951Z"/><path d="M94.49,67.3453c.07657,3.28714.34456,3.70826,2.29308,3.74654h.34455v1.26073h-9.365V71.09184h.57426c2.02509-.03828,2.25479-.4594,2.33136-3.74654V62.338c-.03829-3.05743-.38284-3.63037-2.40793-3.63037h-.49769V57.48389A49.585,49.585,0,0,0,94.1454,56.338H94.49Zm.30627-18.46078A2.42715,2.42715,0,1,1,92.35,46.43831,2.44781,2.44781,0,0,1,94.79623,48.88452Z"/><path d="M99.33882,47.50762a37.0398,37.0398,0,0,0,6.00133-1.031h.34324V63.79149l1.567-1.10891a34.29532,34.29532,0,0,0,3.36371-2.75248,1.37359,1.37359,0,0,0,.49769-.95578c0-.49637-.42113-.76436-1.26205-.76436h-.26667V56.94923h7.03236V58.21h-.15313c-1.567.11485-2.63763.72607-5.27395,2.9439-.68911.57294-.80264.64951-1.60528,1.26073l4.96767,6.03962c1.68185,2.02509,2.2944,2.4845,3.28714,2.63763h.19142v1.26073h-8.44623V71.09184h.1901c.99406,0,1.52872-.268,1.52872-.76568,0-.26666,0-.26666-1.06931-1.60528L106.754,64.51757l-1.07063.80264V67.3453c0,3.24885.2297,3.67,2.02641,3.74654h.15313v1.26073H99.10911V71.09184h.42113c2.06337-.07657,2.25479-.34455,2.33136-3.74654V52.01852c.03828-2.63763-.38284-3.21057-2.33136-3.28713h-.19142Z"/><path d="M136.18512,64.66938a8.22577,8.22577,0,0,1-8.44623,8.29441c-5.08384,0-8.75382-3.47723-8.75382-8.25612a8.21478,8.21478,0,0,1,8.60069-8.36966C132.55475,56.338,136.18512,59.85353,136.18512,64.66938Zm-12.95713,0c0,4.89243,1.299,7.03369,4.35777,7.03369,3.05743,0,4.35645-2.103,4.35645-7.14722,0-4.77889-1.3373-6.91883-4.35645-6.91883C124.527,57.637,123.228,59.73868,123.228,64.66938Z"/><path d="M138.127,57.48389a36.18148,36.18148,0,0,0,5.69507-.99407h.15313a6.39257,6.39257,0,0,1,.49637,2.56107v.30627a7.39778,7.39778,0,0,1,5.77163-3.01915,4.61813,4.61813,0,0,1,4.73929,3.32542c2.06469-2.371,3.78483-3.32542,6.00134-3.32542a5.082,5.082,0,0,1,4.35644,2.13994c.536.99406.61255,1.45215.61255,4.01321V67.3453c.07657,3.402.26666,3.67,2.25479,3.74654h.2297v1.26073h-8.52411V71.09184h.15313c1.87328-.11485,2.02509-.38284,2.02509-3.74654V61.91822c0-2.56106-.72607-3.59341-2.52146-3.59341-1.49175,0-2.75248.87921-4.39605,2.98219v6.0383c0,3.28714.19142,3.63169,1.94984,3.74654h.11353v1.26073h-8.14127V71.09184h.19142c1.87327-.11485,2.0264-.38284,2.0264-3.74654V62.52944a6.49926,6.49926,0,0,0-.42112-3.09571,2.54016,2.54016,0,0,0-2.13994-1.1472,4.55252,4.55252,0,0,0-3.3637,1.72013c-.84093.95578-.84093.95578-.95578,1.07063v6.268c0,3.28714.19142,3.63169,1.98812,3.74654h.15182v1.26073h-8.40795V71.09184h.15314c2.02509-.03828,2.29308-.4594,2.29308-3.74654V62.45288c-.07657-3.24886-.34456-3.66866-2.29308-3.70694H138.127Z"/><path d="M177.2849,67.3453c.07657,3.28714.34456,3.70826,2.29308,3.74654h.34455v1.26073h-9.365V71.09184h.57426c2.02509-.03828,2.25479-.4594,2.33136-3.74654V62.338c-.03829-3.05743-.38284-3.63037-2.40793-3.63037h-.49769V57.48389a49.5851,49.5851,0,0,0,6.38286-1.14588h.34455Zm.30627-18.46078a2.42715,2.42715,0,1,1-2.44621-2.44621A2.44781,2.44781,0,0,1,177.59117,48.88452Z"/><polygon points="33.95 62.826 33.95 57.994 27.344 57.994 27.344 53.161 50.433 53.161 50.433 48.328 12.748 48.328 12.748 43.495 7.553 43.495 7.553 38.662 0 38.662 0 43.495 0 48.328 0 53.161 0 57.994 0 62.826 0 67.659 0 72.492 64.23 72.492 64.23 67.659 80.902 67.659 80.902 62.826 33.95 62.826"/><rect x="64.22998" y="28.99683" width="16.67188" height="4.83289"/><polygon points="7.553 0 7.553 4.833 12.748 4.833 12.748 9.666 50.433 9.666 50.433 14.499 27.344 14.499 27.344 19.331 33.95 19.331 33.95 24.164 80.902 24.164 80.902 19.331 80.902 14.499 80.902 9.666 80.902 4.833 80.902 0 7.553 0"/><rect x="60.89746" y="45.49821" width="44.84195" height="4.8328" transform="translate(131.23304 -35.40382) rotate(90)" fill="none"/><rect x="65.73026" y="45.49821" width="44.84195" height="4.8328" transform="translate(136.06585 -40.23662) rotate(90)" fill="none"/></g></g></svg>