<svg xmlns="http://www.w3.org/2000/svg" viewBox="0 0 81.40918 79.5575"><title>logo-master</title><g id="efe34fc9-2711-4cbb-b3b3-df68f0490f86" data-name="Layer 2"><g id="f469cc05-356f-4829-a301-7a41324fa92f" data-name="Layer 1"><path d="M20.83887,51.16V47.56921c0-1.89453-.05664-2.23339-.45313-2.96875a3.75939,3.75939,0,0,0-3.22265-1.583c-1.63965,0-2.91211.706-4.43946,2.46a3.41623,3.41623,0,0,0-3.50586-2.46,5.47249,5.47249,0,0,0-4.26953,2.23339v-.22656a4.72887,4.72887,0,0,0-.36719-1.89453H4.46777a26.76487,26.76487,0,0,1-4.21289.73535v.9336h.1416c1.44141.02832,1.63965.33886,1.69629,2.74218V51.16c0,2.43164-.19824,2.74317-1.69629,2.77149H.2832v.93262H6.50293v-.93262H6.39062c-1.3291-.085-1.4707-.33985-1.4707-2.77149V46.52332c.085-.085.085-.085.707-.792a3.36438,3.36438,0,0,1,2.48828-1.27246,1.87907,1.87907,0,0,1,1.583.84864,4.80774,4.80774,0,0,1,.31153,2.29V51.16c0,2.48829-.11329,2.68653-1.499,2.77149h-.1416v.93262H14.3916v-.93262h-.084c-1.30078-.085-1.44239-.33985-1.44239-2.77149V46.69324c1.21582-1.55567,2.14844-2.20606,3.252-2.20606,1.32812,0,1.86523.76367,1.86523,2.65821V51.16c0,2.48829-.1123,2.68653-1.498,2.77149h-.11329v.93262h6.30567v-.93262h-.16992C21.03613,53.87488,20.89551,53.67664,20.83887,51.16Z"/><path d="M35.0918,53.78992c-.65039,0-.84864-.45215-.84864-2.06446v-4.835c0-1.52636-.1416-2.03515-.76367-2.65722a5.09719,5.09719,0,0,0-3.84472-1.21582,7.84,7.84,0,0,0-3.73243.791A2.59333,2.59333,0,0,0,24.34668,45.788a1.04432,1.04432,0,0,0,1.13184,1.01758c.76269,0,1.21582-.45215,1.38476-1.32812a1.82206,1.82206,0,0,1,.42481-1.04688,2.91425,2.91425,0,0,1,1.72461-.48047,2.36717,2.36717,0,0,1,2.14843.9336,3.30982,3.30982,0,0,1,.25489,1.668V47.287l-1.64063.64941a33.679,33.679,0,0,0-4.043,2.00781c-1.27246.82032-1.80957,1.61133-1.80957,2.71485,0,1.4414,1.24414,2.48828,2.96875,2.48828A8.1262,8.1262,0,0,0,31.501,53.33777a2.44018,2.44018,0,0,0,2.57226,1.80957,2.53776,2.53776,0,0,0,2.77149-2.5166h-.73535C35.96777,53.36511,35.60059,53.78992,35.0918,53.78992ZM31.416,52.31921a5.16242,5.16242,0,0,1-2.94043,1.47071,1.6425,1.6425,0,0,1-1.584-1.75293c0-1.44239,1.04688-2.375,3.8457-3.50684l.67872-.28223Z"/><path d="M46.1416,53.93152H45.915v.93262h6.47461v-.93262h-.169c-1.4707-.05664-1.6123-.25488-1.668-2.77149v-3.7041a4.98161,4.98161,0,0,0-.48144-2.85547,3.60822,3.60822,0,0,0-3.1377-1.583,5.57873,5.57873,0,0,0-4.46777,2.26171v-.25488a4.82228,4.82228,0,0,0-.36719-1.89453h-.11328a23.79483,23.79483,0,0,1-4.21289.76367v.90528h.11328c1.46973.05664,1.668.33886,1.72461,2.74218V51.16c-.02832,2.43164-.22656,2.74317-1.72461,2.77149h-.1416v.93262h6.418v-.93262h-.1416c-1.44141-.05664-1.583-.31152-1.583-2.77149V46.58c1.0459-1.47071,2.09277-2.17774,3.28027-2.17774a1.91086,1.91086,0,0,1,1.97852,2.1211V51.16C47.69629,53.62,47.55566,53.84656,46.1416,53.93152Z"/><path d="M58.17871,51.16V46.58c1.0459-1.47071,2.09277-2.17774,3.28027-2.17774a1.91086,1.91086,0,0,1,1.97852,2.1211V51.16c0,2.46-.14062,2.68653-1.55469,2.77149h-.22656v.93262h6.47559v-.93262h-.16993c-1.4707-.05664-1.6123-.25488-1.668-2.77149v-3.7041a4.9816,4.9816,0,0,0-.48145-2.85547,3.60822,3.60822,0,0,0-3.1377-1.583A5.57873,5.57873,0,0,0,58.207,45.27917v-.25488a4.82228,4.82228,0,0,0-.36719-1.89453h-.11328a23.79483,23.79483,0,0,1-4.21289.76367v.90528H53.627c1.46973.05664,1.668.33886,1.72461,2.74218V51.16c-.02832,2.43164-.22656,2.74317-1.72461,2.77149h-.1416v.93262h6.418v-.93262h-.1416C58.32031,53.87488,58.17871,53.62,58.17871,51.16Z"/><path d="M77.25293,43.4696v.9043h.25488c.792.02832,1.15918.25488,1.15918.707a1.48057,1.48057,0,0,1-.19824.67871c-.16895.39551-.33887.76368-.36719.82032l-2.34668,5.51367-2.91211-5.88184c-.36816-.791-.39648-.90429-.39648-1.13086,0-.39551.36816-.65039,1.01855-.67871l.169-.02832v-.9043H67.668v.9043l.22656.02832c.876.02832,1.10254.25488,1.92285,1.86621L74.3125,55.203l-.81934,2.06446c-.4248,1.01757-.76367,1.27246-2.20605,1.78125-1.10254.3955-1.583.90527-1.583,1.668a1.20674,1.20674,0,0,0,1.30078,1.1875c1.10254,0,1.89453-.84765,2.91211-3.251L78.89355,47.202c.9043-2.14942,1.29981-2.62989,2.375-2.79981l.14063-.02832v-.9043Z"/><path d="M4.97656,75.40125V67.25867H4.72168A36.68014,36.68014,0,0,1,0,68.10632v.90528H.36816c1.498,0,1.75293.42382,1.78125,2.68554v3.70411c-.05664,2.43164-.22656,2.74316-1.72461,2.77148H0v.93262H6.92773v-.93262H6.67285C5.23145,78.14441,5.0332,77.83289,4.97656,75.40125Z"/><path d="M5.20312,61.745a1.79633,1.79633,0,1,0-1.80957,1.83789A1.8038,1.8038,0,0,0,5.20312,61.745Z"/><path d="M19.81641,76.22156,16.1416,71.75378c.59375-.45214.67774-.50878,1.1875-.93261,1.9502-1.64063,2.74219-2.09278,3.90137-2.17774h.11328v-.93261H16.1416v.93261h.19727c.62207,0,.93359.19824.93359.56543a1.01608,1.01608,0,0,1-.36816.707A25.36876,25.36876,0,0,1,14.416,71.952l-1.15918.82031V59.96375h-.25391a27.40027,27.40027,0,0,1-4.43945.76269v.90527h.1416c1.4414.05664,1.75293.48047,1.72461,2.43164v11.3379c-.05664,2.5166-.19824,2.71484-1.72461,2.77148H8.39355v.93262h6.47559v-.93262h-.11328c-1.3291-.05664-1.499-.36816-1.499-2.77148V73.9032l.792-.59375,2.57324,3.10937c.791.99024.791.99024.791,1.1875,0,.36817-.39551.56641-1.13086.56641H16.1416v.93262h6.248v-.93262h-.1416C21.51367,78.05945,21.06055,77.7196,19.81641,76.22156Z"/><path d="M29.459,67.25867a6.07682,6.07682,0,0,0-6.3623,6.1914c0,3.53516,2.71484,6.10743,6.47559,6.10743A6.15158,6.15158,0,1,0,29.459,67.25867Zm0,11.36621c-2.26269,0-3.22363-1.584-3.22363-5.20313,0-3.64746.96094-5.20215,3.22363-5.20215,2.2334,0,3.22266,1.583,3.22266,5.11817C32.68164,77.06921,31.7207,78.62488,29.459,78.62488Z"/><path d="M57.84082,75.40125V71.81042c0-1.89453-.05664-2.23339-.45312-2.96875a3.75941,3.75941,0,0,0-3.22266-1.583c-1.63965,0-2.91211.70605-4.43945,2.46a3.41623,3.41623,0,0,0-3.50586-2.46,5.47245,5.47245,0,0,0-4.26953,2.2334V69.2655A4.729,4.729,0,0,0,41.583,67.371h-.11328a26.76509,26.76509,0,0,1-4.21289.73535v.9336h.1416c1.4414.02832,1.63965.33886,1.69629,2.74218v3.61915c0,2.43164-.19825,2.74316-1.69629,2.77148h-.11328v.93262h6.21972v-.93262h-.1123c-1.3291-.085-1.4707-.33984-1.4707-2.77148V70.76453c.085-.085.085-.085.707-.792a3.36771,3.36771,0,0,1,2.48828-1.27246,1.87908,1.87908,0,0,1,1.583.84864,4.80781,4.80781,0,0,1,.31152,2.29v3.5625c0,2.48828-.11328,2.68652-1.499,2.77148h-.14161v.93262h6.02246v-.93262h-.084c-1.30078-.085-1.44238-.33984-1.44238-2.77148v-4.4668c1.21582-1.55567,2.14843-2.20606,3.252-2.20606,1.32813,0,1.86524.76368,1.86524,2.65821v4.01465c0,2.48828-.11231,2.68652-1.498,2.77148h-.11328v.93262h6.30566v-.93262h-.16992C58.03809,78.11609,57.89746,77.91785,57.84082,75.40125Z"/><path d="M62.85938,61.71667a1.79547,1.79547,0,1,0,1.78124-1.78125A1.81153,1.81153,0,0,0,62.85938,61.71667Z"/><path d="M66.22363,75.40125V67.25867h-.25488a36.68014,36.68014,0,0,1-4.72168.84765v.90528h.36816c1.49805,0,1.75293.42382,1.78125,2.68554v3.70411c-.05664,2.43164-.22656,2.74316-1.7246,2.77148h-.42481v.93262H68.1748v-.93262h-.25488C66.47852,78.14441,66.28027,77.83289,66.22363,75.40125Z"/><polygon points="64.465 28.997 81.137 28.997 81.137 24.164 34.185 24.164 34.185 19.331 27.579 19.331 27.579 14.498 50.668 14.498 50.668 9.666 12.983 9.666 12.983 4.833 7.788 4.833 7.788 0 0.235 0 0.235 4.833 0.235 9.666 0.235 14.498 0.235 19.331 0.235 24.164 0.235 28.997 0.235 33.83 64.465 33.83 64.465 28.997"/></g></g></svg>