<svg xmlns="http://www.w3.org/2000/svg" viewBox="0 0 136.31738 26.80371"><defs><style>.eb96c152-e0ea-485e-9c12-917f640d29b3{fill:#1a1a1a;}</style></defs><title>logo-type-long</title><g id="aeab3f3f-04c8-4d1a-aa36-fe493b8382b5" data-name="Layer 2"><g id="b66f1950-9a16-448c-97b3-9bf5e7a9b34e" data-name="Layer 1"><path class="eb96c152-e0ea-485e-9c12-917f640d29b3" d="M0,8.76465A26.766,26.766,0,0,0,4.21289,8.0293h.11328a4.72884,4.72884,0,0,1,.36719,1.89453v.22656A5.47248,5.47248,0,0,1,8.96289,7.917a3.41625,3.41625,0,0,1,3.50586,2.46c1.52734-1.7539,2.7998-2.46,4.43945-2.46A3.75938,3.75938,0,0,1,20.13086,9.5c.39648.73535.45312,1.07422.45312,2.96875v3.59082c.05664,2.5166.19727,2.71484,1.668,2.77148h.16993v.93262H16.11621v-.93262h.11328c1.38574-.085,1.49805-.2832,1.49805-2.77148V12.04492c0-1.89453-.53711-2.6582-1.86524-2.6582-1.10351,0-2.03613.65039-3.25195,2.206v4.4668c0,2.43164.1416,2.68652,1.44238,2.77148h.084v.93262H8.11426v-.93262h.1416c1.38574-.085,1.499-.2832,1.499-2.77148v-3.5625a4.80786,4.80786,0,0,0-.31152-2.29,1.87907,1.87907,0,0,0-1.583-.84863,3.36438,3.36438,0,0,0-2.48828,1.27246c-.62207.707-.62207.707-.707.792v4.63672c0,2.43164.1416,2.68652,1.4707,2.77148h.11231v.93262H.02832v-.93262H.1416c1.49805-.02832,1.69629-.33984,1.69629-2.77148V12.44043C1.78125,10.03711,1.583,9.72656.1416,9.69824H0Z"/><path class="eb96c152-e0ea-485e-9c12-917f640d29b3" d="M36.44727,17.53027a2.53777,2.53777,0,0,1-2.77149,2.51661,2.44019,2.44019,0,0,1-2.57226-1.80958,8.12622,8.12622,0,0,1-4.60938,1.80958c-1.72461,0-2.96875-1.04688-2.96875-2.48829,0-1.10351.53711-1.89453,1.80957-2.71484a33.679,33.679,0,0,1,4.043-2.00781l1.64062-.64942v-.73535a3.31,3.31,0,0,0-.25488-1.668,2.36719,2.36719,0,0,0-2.14844-.93359,2.91423,2.91423,0,0,0-1.72461.48047,1.82213,1.82213,0,0,0-.4248,1.04687c-.16894.876-.62207,1.32813-1.38477,1.32813a1.04431,1.04431,0,0,1-1.13183-1.01758A2.59333,2.59333,0,0,1,25.50488,8.708a7.84,7.84,0,0,1,3.73242-.791A5.09724,5.09724,0,0,1,33.082,9.13281c.62207.62207.76367,1.13086.76367,2.65723v4.835c0,1.6123.19825,2.06445.84864,2.06445.50878,0,.876-.4248,1.01757-1.15918Zm-6.10743-4.10058c-2.79882,1.13183-3.8457,2.06445-3.8457,3.50683a1.6425,1.6425,0,0,0,1.584,1.75293,5.1624,5.1624,0,0,0,2.94043-1.4707V13.14746Z"/><path class="eb96c152-e0ea-485e-9c12-917f640d29b3" d="M37.2334,8.793a23.79575,23.79575,0,0,0,4.21289-.76367h.11328a4.82228,4.82228,0,0,1,.36719,1.89453v.25488A5.57873,5.57873,0,0,1,46.39453,7.917,3.60821,3.60821,0,0,1,49.53223,9.5a4.98159,4.98159,0,0,1,.48144,2.85547v3.7041c.05567,2.5166.19727,2.71484,1.668,2.77148h.16992v.93262H45.376v-.93262h.22656c1.41406-.085,1.55469-.31152,1.55469-2.77148V11.42285a1.91086,1.91086,0,0,0-1.97852-2.12109c-1.1875,0-2.23437.707-3.28027,2.17773v4.58008c0,2.46.1416,2.71484,1.583,2.77148h.1416v.93262h-6.418v-.93262h.1416c1.498-.02832,1.69629-.33984,1.72461-2.77148V12.44043c-.05664-2.40332-.25488-2.68555-1.72461-2.74219H37.2334Z"/><path class="eb96c152-e0ea-485e-9c12-917f640d29b3" d="M52.832,8.793a23.79575,23.79575,0,0,0,4.21289-.76367h.11328a4.82228,4.82228,0,0,1,.36719,1.89453v.25488A5.57874,5.57874,0,0,1,61.99316,7.917,3.60821,3.60821,0,0,1,65.13086,9.5a4.98159,4.98159,0,0,1,.48144,2.85547v3.7041c.05567,2.5166.19727,2.71484,1.668,2.77148h.16895v.93262H60.97461v-.93262h.22656c1.41406-.085,1.55469-.31152,1.55469-2.77148V11.42285a1.91086,1.91086,0,0,0-1.97852-2.12109c-1.1875,0-2.23437.707-3.28027,2.17773v4.58008c0,2.46.1416,2.71484,1.583,2.77148h.1416v.93262h-6.418v-.93262h.1416c1.498-.02832,1.69629-.33984,1.72461-2.77148V12.44043c-.05664-2.40332-.25488-2.68555-1.72461-2.74219H52.832Z"/><path class="eb96c152-e0ea-485e-9c12-917f640d29b3" d="M72.81055,8.36914v.9043l-.169.02832c-.65039.02832-1.01855.2832-1.01855.67871,0,.22656.02832.33984.39648,1.13086l2.91211,5.88183,2.34668-5.51367c.02832-.05664.19824-.4248.36719-.82031a1.4806,1.4806,0,0,0,.19824-.67871c0-.45215-.36719-.67871-1.15918-.707h-.25488v-.9043h4.15625v.9043l-.14063.02832c-1.07519.16992-1.4707.65039-2.375,2.7998L73.09375,23.55273c-1.01758,2.40332-1.80957,3.251-2.91211,3.251a1.20674,1.20674,0,0,1-1.30078-1.1875c0-.76269.48047-1.27246,1.583-1.668,1.44238-.50879,1.78125-.76367,2.20605-1.78125l.81934-2.06445L68.99414,11.168c-.82031-1.61133-1.04687-1.83789-1.92285-1.86621l-.22656-.02832v-.9043Z"/><path class="eb96c152-e0ea-485e-9c12-917f640d29b3" d="M86.73242,17.02148C85.71387,19,84.38574,20.13086,83.085,20.13086A1.62738,1.62738,0,0,1,81.332,18.77441a4.3193,4.3193,0,0,1,.31055-1.35742l2.31836-7.09668a4.81729,4.81729,0,0,0,.22656-1.07519c0-.31055-.11328-.48047-.36719-.48047-.59375,0-1.04687.62207-1.78125,2.40332l-.792-.19727c1.1875-2.46,2.17676-3.39355,3.59082-3.39355.9043,0,1.61133.53711,1.61133,1.21582a4.78687,4.78687,0,0,1-.28223,1.35742l-2.43164,7.46484a1.97986,1.97986,0,0,0-.16992.791c0,.39648.16992.62207.45215.62207.65039,0,1.13086-.56543,2.03613-2.375Zm1.498-13.82714a1.48335,1.48335,0,0,1-1.46973,1.38574A1.46375,1.46375,0,0,1,85.29,3.19434a1.475,1.475,0,0,1,2.94043,0Z"/><path class="eb96c152-e0ea-485e-9c12-917f640d29b3" d="M91.00293.45215A12.64983,12.64983,0,0,0,95.21582,0l.19824.11328L91.25781,13.26074c.93262-1.13086,1.15918-1.41406,1.83789-2.14941,2.26172-2.62891,3.84473-3.73145,5.28711-3.73145.65039,0,1.21582.42383,1.21582.876a1.0861,1.0861,0,0,1-1.10254.90527,3.81038,3.81038,0,0,1-.82031-.1416,3.15373,3.15373,0,0,0-.76367-.1416c-.93262,0-2.31836,1.24414-4.12793,3.7041,1.83789.19824,2.40332,1.0459,2.54492,3.8457.085,1.63965.11328,1.78125.33887,2.14844a.5757.5757,0,0,0,.53808.31055c.7627,0,1.38477-.791,1.83692-2.31836l.707.2832c-.67871,2.06348-1.9502,3.2793-3.4209,3.2793-1.13086,0-1.89453-.9043-1.89453-2.31836,0-.19727.02832-.9043.085-1.668l.02832-1.35742c0-1.15918-.39551-1.69629-1.21582-1.69629a1.95018,1.95018,0,0,0-1.15918.42383l-1.97949,6.249H87.12988l5.42871-17.417a3.32225,3.32225,0,0,0,.11231-.62207c0-.50879-.33887-.67871-1.35645-.67871h-.53711Z"/><path class="eb96c152-e0ea-485e-9c12-917f640d29b3" d="M109.2002,11.47949c0,4.4668-3.0254,8.65137-6.22071,8.65137-1.86621,0-3.05371-1.668-3.05371-4.24121,0-4.29688,2.99707-8.34082,6.16406-8.34082C107.92773,7.54883,109.2002,9.16113,109.2002,11.47949Zm-6.07911.19727a17.45426,17.45426,0,0,0-1.38574,5.74023c0,1.30078.42383,1.97949,1.30078,1.97949,1.13086,0,2.09278-1.13183,3.13867-3.73242a18.79736,18.79736,0,0,0,1.24415-5.65527c0-1.0459-.48145-1.668-1.30079-1.668C104.959,8.34082,104.082,9.30176,103.12109,11.67676Z"/><path class="eb96c152-e0ea-485e-9c12-917f640d29b3" d="M110.40332,11.11133c1.13086-2.40332,2.2334-3.53418,3.47754-3.53418a1.37158,1.37158,0,0,1,1.44238,1.55566,6.56574,6.56574,0,0,1-.31054,1.80957c1.498-2.43164,2.6289-3.36523,4.01464-3.36523a1.90789,1.90789,0,0,1,2.06348,2.03613c0,.25391,0,.25391-.05566,1.0459,1.498-2.17676,2.71386-3.082,4.15625-3.082a2.06508,2.06508,0,0,1,2.26171,1.75293,5.76711,5.76711,0,0,1-.31152,1.52734l-2.14844,6.75781a2.14219,2.14219,0,0,0-.16992.876c0,.48047.16992.76367.50879.76367.67871,0,1.55567-1.01758,2.31934-2.68652l.67773.45312c-1.07422,2.03516-2.375,3.10938-3.75976,3.10938a1.71908,1.71908,0,0,1-1.80957-1.63965,4.54413,4.54413,0,0,1,.36718-1.61133l2.00782-6.39062a3.45138,3.45138,0,0,0,.22558-1.15918c0-.53711-.2539-.81934-.76269-.81934-1.61231,0-3.33692,2.31836-4.55274,6.19141l-1.61133,5.06152h-2.06445l2.85645-9.3584a3.33333,3.33333,0,0,0,.16894-.99023c0-.56543-.28223-.9043-.791-.9043-1.52735,0-3.11036,2.2334-4.3545,6.13477l-1.6123,5.11816H110.5166l2.5166-8.002a8.37742,8.37742,0,0,0,.59375-2.31836c0-.39551-.16992-.62207-.45215-.62207-.53808,0-1.21582.792-2.09277,2.46Z"/><path class="eb96c152-e0ea-485e-9c12-917f640d29b3" d="M134.81934,17.02148c-1.01856,1.97852-2.34668,3.10938-3.64746,3.10938a1.62737,1.62737,0,0,1-1.75293-1.35645,4.31949,4.31949,0,0,1,.31054-1.35742l2.31836-7.09668a4.81729,4.81729,0,0,0,.22656-1.07519c0-.31055-.11328-.48047-.36718-.48047-.59375,0-1.04688.62207-1.78125,2.40332l-.792-.19727c1.1875-2.46,2.17676-3.39355,3.59082-3.39355.9043,0,1.61133.53711,1.61133,1.21582a4.78713,4.78713,0,0,1-.28222,1.35742l-2.43164,7.46484a1.97973,1.97973,0,0,0-.16993.791c0,.39648.16993.62207.45215.62207.65039,0,1.13086-.56543,2.03613-2.375Zm1.498-13.82714a1.48334,1.48334,0,0,1-1.46972,1.38574A1.46375,1.46375,0,0,1,133.377,3.19434a1.475,1.475,0,0,1,2.94043,0Z"/></g></g></svg>