<svg xmlns="http://www.w3.org/2000/svg" viewBox="0 0 81.40918 118.21997"><title>logo-master</title><g id="49cdc0f7-8fc8-4603-b119-8df88deed4a7" data-name="Layer 2"><g id="ff8275d2-586d-4bc7-a4c3-82c8b22fda22" data-name="Layer 1"><path d="M20.83887,89.82251V86.23169c0-1.89453-.05664-2.2334-.45313-2.96875a3.75937,3.75937,0,0,0-3.22265-1.583c-1.63965,0-2.91211.70606-4.43946,2.46a3.41625,3.41625,0,0,0-3.50586-2.46,5.4725,5.4725,0,0,0-4.26953,2.2334v-.22656a4.72884,4.72884,0,0,0-.36719-1.89453H4.46777a26.766,26.766,0,0,1-4.21289.73535v.93359h.1416c1.44141.02832,1.63965.33887,1.69629,2.74219v3.61914c0,2.43164-.19824,2.74316-1.69629,2.77148H.2832v.93262H6.50293V92.594H6.39062c-1.3291-.085-1.4707-.33984-1.4707-2.77148V85.18579c.085-.085.085-.085.707-.792a3.36438,3.36438,0,0,1,2.48828-1.27246,1.87906,1.87906,0,0,1,1.583.84863,4.80782,4.80782,0,0,1,.31153,2.29v3.5625c0,2.48828-.11329,2.68652-1.499,2.77148h-.1416v.93262H14.3916V92.594h-.084c-1.30078-.085-1.44239-.33984-1.44239-2.77148v-4.4668c1.21582-1.55566,2.14844-2.20605,3.252-2.20605,1.32812,0,1.86523.76367,1.86523,2.6582v4.01465c0,2.48828-.1123,2.68652-1.498,2.77148h-.11329v.93262h6.30567V92.594h-.16992C21.03613,92.53735,20.89551,92.33911,20.83887,89.82251Z"/><path d="M35.0918,92.45239c-.65039,0-.84864-.45215-.84864-2.06445V85.553c0-1.52637-.1416-2.03516-.76367-2.65723a5.09723,5.09723,0,0,0-3.84472-1.21582,7.84,7.84,0,0,0-3.73243.791,2.59333,2.59333,0,0,0-1.55566,1.97949A1.04432,1.04432,0,0,0,25.47852,85.468c.76269,0,1.21582-.45215,1.38476-1.32813a1.82205,1.82205,0,0,1,.42481-1.04687,2.91418,2.91418,0,0,1,1.72461-.48047,2.36717,2.36717,0,0,1,2.14843.93359,3.30987,3.30987,0,0,1,.25489,1.668v.73535l-1.64063.64942a33.679,33.679,0,0,0-4.043,2.00781C24.46,89.427,23.92285,90.218,23.92285,91.32153c0,1.44141,1.24414,2.48828,2.96875,2.48828A8.1262,8.1262,0,0,0,31.501,92.00024a2.44018,2.44018,0,0,0,2.57226,1.80957,2.53776,2.53776,0,0,0,2.77149-2.5166h-.73535C35.96777,92.02759,35.60059,92.45239,35.0918,92.45239ZM31.416,90.98169a5.16246,5.16246,0,0,1-2.94043,1.4707,1.6425,1.6425,0,0,1-1.584-1.75293c0-1.44238,1.04688-2.375,3.8457-3.50683l.67872-.28223Z"/><path d="M46.1416,92.594H45.915v.93262h6.47461V92.594h-.169c-1.4707-.05664-1.6123-.25488-1.668-2.77148v-3.7041a4.98159,4.98159,0,0,0-.48144-2.85547,3.60821,3.60821,0,0,0-3.1377-1.583,5.57874,5.57874,0,0,0-4.46777,2.26172v-.25488a4.82228,4.82228,0,0,0-.36719-1.89453h-.11328a23.79575,23.79575,0,0,1-4.21289.76367v.90527h.11328c1.46973.05664,1.668.33887,1.72461,2.74219v3.61914c-.02832,2.43164-.22656,2.74316-1.72461,2.77148h-.1416v.93262h6.418V92.594h-.1416c-1.44141-.05664-1.583-.31152-1.583-2.77148V85.24243c1.0459-1.4707,2.09277-2.17773,3.28027-2.17773a1.91086,1.91086,0,0,1,1.97852,2.12109v4.63672C47.69629,92.28247,47.55566,92.509,46.1416,92.594Z"/><path d="M58.17871,89.82251V85.24243c1.0459-1.4707,2.09277-2.17773,3.28027-2.17773a1.91086,1.91086,0,0,1,1.97852,2.12109v4.63672c0,2.46-.14062,2.68652-1.55469,2.77148h-.22656v.93262h6.47559V92.594h-.16993c-1.4707-.05664-1.6123-.25488-1.668-2.77148v-3.7041a4.98158,4.98158,0,0,0-.48145-2.85547,3.60821,3.60821,0,0,0-3.1377-1.583A5.57874,5.57874,0,0,0,58.207,83.94165v-.25488a4.82228,4.82228,0,0,0-.36719-1.89453h-.11328a23.79575,23.79575,0,0,1-4.21289.76367v.90527H53.627c1.46973.05664,1.668.33887,1.72461,2.74219v3.61914c-.02832,2.43164-.22656,2.74316-1.72461,2.77148h-.1416v.93262h6.418V92.594h-.1416C58.32031,92.53735,58.17871,92.28247,58.17871,89.82251Z"/><path d="M77.25293,82.13208v.9043h.25488c.792.02832,1.15918.25488,1.15918.707a1.4806,1.4806,0,0,1-.19824.67871c-.16895.39551-.33887.76367-.36719.82031L75.75488,90.7561l-2.91211-5.88183c-.36816-.791-.39648-.9043-.39648-1.13086,0-.39551.36816-.65039,1.01855-.67871l.169-.02832v-.9043H67.668v.9043l.22656.02832c.876.02832,1.10254.25488,1.92285,1.86621l4.49512,8.93457-.81934,2.06445c-.4248,1.01758-.76367,1.27246-2.20605,1.78125-1.10254.39551-1.583.90528-1.583,1.668a1.20674,1.20674,0,0,0,1.30078,1.1875c1.10254,0,1.89453-.84766,2.91211-3.251L78.89355,85.8645c.9043-2.14941,1.29981-2.62988,2.375-2.7998l.14063-.02832v-.9043Z"/><path d="M4.97656,114.06372v-8.14258H4.72168A36.67843,36.67843,0,0,1,0,106.7688v.90527H.36816c1.498,0,1.75293.42383,1.78125,2.68555v3.7041c-.05664,2.43164-.22656,2.74316-1.72461,2.77149H0v.93261H6.92773v-.93261H6.67285C5.23145,116.80688,5.0332,116.49536,4.97656,114.06372Z"/><path d="M5.20312,100.40747a1.79633,1.79633,0,1,0-1.80957,1.83789A1.8038,1.8038,0,0,0,5.20312,100.40747Z"/><path d="M19.81641,114.884l-3.67481-4.46777c.59375-.45215.67774-.50879,1.1875-.93262,1.9502-1.64062,2.74219-2.09277,3.90137-2.17773h.11328v-.93262H16.1416v.93262h.19727c.62207,0,.93359.19824.93359.56543a1.01609,1.01609,0,0,1-.36816.707A25.37033,25.37033,0,0,1,14.416,110.6145l-1.15918.82031V98.62622h-.25391a27.40014,27.40014,0,0,1-4.43945.7627v.90527h.1416c1.4414.05664,1.75293.48047,1.72461,2.43164v11.33789c-.05664,2.5166-.19824,2.71484-1.72461,2.77149H8.39355v.93261h6.47559v-.93261h-.11328c-1.3291-.05665-1.499-.36817-1.499-2.77149v-1.49805l.792-.59375,2.57324,3.10938c.791.99023.791.99023.791,1.1875,0,.36816-.39551.56641-1.13086.56641H16.1416v.93261h6.248v-.93261h-.1416C21.51367,116.72192,21.06055,116.38208,19.81641,114.884Z"/><path d="M29.459,105.92114a6.07683,6.07683,0,0,0-6.3623,6.19141c0,3.53516,2.71484,6.10742,6.47559,6.10742a6.15158,6.15158,0,1,0-.11329-12.29883Zm0,11.36621c-2.26269,0-3.22363-1.584-3.22363-5.20312,0-3.64746.96094-5.20215,3.22363-5.20215,2.2334,0,3.22266,1.583,3.22266,5.11816C32.68164,115.73169,31.7207,117.28735,29.459,117.28735Z"/><path d="M57.84082,114.06372V110.4729c0-1.89453-.05664-2.2334-.45312-2.96875a3.75939,3.75939,0,0,0-3.22266-1.583c-1.63965,0-2.91211.70606-4.43945,2.46a3.41625,3.41625,0,0,0-3.50586-2.46,5.47248,5.47248,0,0,0-4.26953,2.2334V107.928a4.729,4.729,0,0,0-.36719-1.89453h-.11328a26.76627,26.76627,0,0,1-4.21289.73535v.93359h.1416c1.4414.02832,1.63965.33887,1.69629,2.74219v3.61914c0,2.43164-.19825,2.74316-1.69629,2.77149h-.11328v.93261h6.21972v-.93261h-.1123c-1.3291-.085-1.4707-.33985-1.4707-2.77149V109.427c.085-.085.085-.085.707-.792a3.36768,3.36768,0,0,1,2.48828-1.27246,1.87907,1.87907,0,0,1,1.583.84863,4.80786,4.80786,0,0,1,.31152,2.29v3.5625c0,2.48828-.11328,2.68652-1.499,2.77149h-.14161v.93261h6.02246v-.93261h-.084c-1.30078-.085-1.44238-.33985-1.44238-2.77149v-4.4668c1.21582-1.55566,2.14843-2.206,3.252-2.206,1.32813,0,1.86524.76367,1.86524,2.6582v4.01465c0,2.48828-.11231,2.68652-1.498,2.77149h-.11328v.93261h6.30566v-.93261h-.16992C58.03809,116.77856,57.89746,116.58032,57.84082,114.06372Z"/><path d="M62.85938,100.37915a1.79547,1.79547,0,1,0,1.78124-1.78125A1.81152,1.81152,0,0,0,62.85938,100.37915Z"/><path d="M66.22363,114.06372v-8.14258h-.25488a36.67843,36.67843,0,0,1-4.72168.84766v.90527h.36816c1.49805,0,1.75293.42383,1.78125,2.68555v3.7041c-.05664,2.43164-.22656,2.74316-1.7246,2.77149h-.42481v.93261H68.1748v-.93261h-.25488C66.47852,116.80688,66.28027,116.49536,66.22363,114.06372Z"/><polygon points="64.465 67.659 81.137 67.659 81.137 62.826 34.185 62.826 34.185 57.994 27.579 57.994 27.579 53.161 50.668 53.161 50.668 48.328 12.983 48.328 12.983 43.495 7.788 43.495 7.788 38.662 0.235 38.662 0.235 43.495 0.235 48.328 0.235 53.161 0.235 57.994 0.235 62.826 0.235 67.659 0.235 72.492 64.465 72.492 64.465 67.659"/><rect x="64.46484" y="28.99683" width="16.67236" height="4.83289"/><polygon points="12.983 9.666 50.668 9.666 50.668 14.499 27.579 14.499 27.579 19.331 34.185 19.331 34.185 24.164 81.137 24.164 81.137 19.331 81.137 14.499 81.137 9.666 81.137 4.833 81.137 0 7.788 0 7.788 4.833 12.983 4.833 12.983 9.666"/></g></g></svg>