<svg width="32" height="32" viewBox="0 0 32 32" fill="none" xmlns="http://www.w3.org/2000/svg">
<path d="M3.75 8.875V23.125C3.75 25.9631 6.03693 28.25 8.875 28.25H15.475C18.313 28.25 20.6 25.9631 20.6 23.125V20.9H23.125C25.9631 20.9 28.25 18.613 28.25 15.775V8.875C28.25 6.03694 25.9631 3.75 23.125 3.75H8.875C6.03692 3.75 3.75 6.03693 3.75 8.875ZM11.25 11.325H5.525V8.8C5.525 6.98467 6.99145 5.45 8.875 5.45H11.25V11.325ZM23.125 19.2H20.75V13.25H26.475V15.85C26.475 17.6653 25.0085 19.2 23.125 19.2ZM15.475 26.55H13.1V21.125H18.825V23.2C18.825 25.0153 17.3585 26.55 15.475 26.55ZM18.825 19.2H13.1V13.25H18.825V19.2ZM26.475 11.325H20.75V5.525H23.125C24.9403 5.525 26.475 6.99145 26.475 8.875V11.325ZM18.825 11.325H13.1V5.45H18.825V11.325ZM5.45 23.125V21.05H11.25V26.475H8.8C6.98467 26.475 5.45 25.0085 5.45 23.125ZM11.25 19.2H5.45V13.25H11.25V19.2Z" fill="#00234D" stroke="#00234D" stroke-width="0.5"/>
</svg>
