<svg width="200" height="200" viewBox="0 0 200 200" fill="none" xmlns="http://www.w3.org/2000/svg">
<rect x="8" y="8" width="184" height="184" fill="#F6F7F9"/>
<path d="M89.2323 76.4812C81.0371 76.4812 75.7797 80.8279 71.2956 87.348C68.8215 78.9651 62.7911 76.4812 56.606 76.4812C48.4108 76.4812 43.3081 81.4489 38.9785 87.8137L38.0508 78.1889H28V160H39.9063V96.5071C44.3905 89.5213 49.0293 86.727 54.132 86.727C60.0078 86.727 60.4717 90.9185 60.4717 101.32V160H72.5326V96.5071C77.0168 89.5213 81.8102 86.727 86.7582 86.727C92.6341 86.727 93.098 90.9185 93.098 101.32V160H105.004V99.1462C105.004 80.3622 97.1183 76.4812 89.2323 76.4812Z" fill="#001C3D"/>
<path d="M143.755 40C138.189 40 134.478 43.881 134.478 49.1591C134.478 54.4373 138.189 58.3182 143.755 58.3182C149.476 58.3182 153.342 54.4373 153.342 49.1591C153.342 43.881 149.476 40 143.755 40ZM154.115 78.1889H116.85V88.5899H141.127V149.599H116.077V160H177V149.599H154.115V78.1889Z" fill="#001C3D"/>
<rect x="8" y="8" width="184" height="184" stroke="#4A9497" stroke-width="16"/>
</svg>
