<svg width="177" height="125" viewBox="0 0 177 125" fill="none" xmlns="http://www.w3.org/2000/svg">
<path d="M33.3988 82.1C30.7488 82.1 29.0488 83.5 27.5988 85.6C26.7988 82.9 24.8488 82.1 22.8488 82.1C20.1988 82.1 18.5488 83.7 17.1488 85.75L16.8488 82.65H13.5988V109H17.4488V88.55C18.8988 86.3 20.3988 85.4 22.0488 85.4C23.9488 85.4 24.0988 86.75 24.0988 90.1V109H27.9988V88.55C29.4488 86.3 30.9988 85.4 32.5988 85.4C34.4988 85.4 34.6488 86.75 34.6488 90.1V109H38.4988V89.4C38.4988 83.35 35.9488 82.1 33.3988 82.1ZM67.4293 103.25V90.6C67.4293 85.4 64.1293 82.1 57.5793 82.1C54.9793 82.1 52.1793 82.6 48.9293 83.75L50.0793 86.95C52.7793 86 55.1793 85.6 56.9293 85.6C60.8293 85.6 63.1793 87 63.1793 90.85V93H59.2793C51.3293 93 46.9793 96.05 46.9793 101.45C46.9793 106.35 50.1793 109.55 55.4793 109.55C58.8793 109.55 61.8293 108.3 63.7293 105.85C64.4293 108.25 66.2793 109.3 68.5293 109.6L69.5793 106.6C68.0793 106.15 67.4293 105.35 67.4293 103.25ZM56.5293 106.4C53.0793 106.4 51.4793 104.7 51.4793 101.4C51.4793 98 53.5793 95.9 59.3793 95.9H63.1793V102.65C61.6293 105 59.1293 106.4 56.5293 106.4ZM81.0098 109H85.2098V89.85C86.6098 87.75 89.2598 85.45 92.3598 85.45C96.3098 85.45 96.8598 87.6 96.8598 93V109H101.06V89.9C101.06 85 98.8098 82.1 93.6598 82.1C90.5598 82.1 87.0598 83.65 84.9598 86.35L84.6098 82.65H81.0098V109ZM113.49 109H117.69V89.85C119.09 87.75 121.74 85.45 124.84 85.45C128.79 85.45 129.34 87.6 129.34 93V109H133.54V89.9C133.54 85 131.29 82.1 126.14 82.1C123.04 82.1 119.54 83.65 117.44 86.35L117.09 82.65H113.49V109ZM167.871 82.65H163.521L156.071 105.8L148.521 82.65H144.071L153.221 109H154.621C153.271 113.05 151.671 115.3 146.271 116.25L146.871 119.6C153.871 118.85 156.821 114.55 158.671 109.15L167.871 82.65Z" fill="#001C3D"/>
<path d="M26.0488 48.65C24.2488 48.65 23.0488 47.4 23.0488 45.7C23.0488 44 24.2488 42.75 26.0488 42.75C27.8988 42.75 29.1488 44 29.1488 45.7C29.1488 47.4 27.8988 48.65 26.0488 48.65ZM29.3988 36.35H17.3488V33H25.1988V13.35H17.0988V10H36.7988V13.35H29.3988V36.35ZM53.0293 47.45L48.8293 46.95V10H53.0293V47.45ZM70.5793 36.35H65.1793L53.4793 24.4L66.4293 10H71.9793L58.7793 24.45L70.5793 36.35ZM91.0598 36.9C83.6598 36.9 79.6598 31.25 79.6598 23.15C79.6598 14.85 83.6098 9.45 91.0098 9.45C98.3598 9.45 102.36 15.1 102.36 23.2C102.36 31.5 98.4598 36.9 91.0598 36.9ZM91.0598 33.45C95.5598 33.45 97.8098 30.15 97.8098 23.2C97.8098 16.15 95.5598 12.9 91.0098 12.9C86.4598 12.9 84.2098 16.15 84.2098 23.15C84.2098 30.15 86.5098 33.45 91.0598 33.45ZM130.84 36.9C128.19 36.9 126.49 35.5 125.04 33.4C124.24 36.1 122.29 36.9 120.29 36.9C117.64 36.9 115.99 35.3 114.59 33.25L114.29 36.35H111.04V10H114.89V30.45C116.34 32.7 117.84 33.6 119.49 33.6C121.39 33.6 121.54 32.25 121.54 28.9V10H125.44V30.45C126.89 32.7 128.44 33.6 130.04 33.6C131.94 33.6 132.09 32.25 132.09 28.9V10H135.94V29.6C135.94 35.65 133.39 36.9 130.84 36.9ZM155.971 48.65C154.171 48.65 152.971 47.4 152.971 45.7C152.971 44 154.171 42.75 155.971 42.75C157.821 42.75 159.071 44 159.071 45.7C159.071 47.4 157.821 48.65 155.971 48.65ZM159.321 36.35H147.271V33H155.121V13.35H147.021V10H166.721V13.35H159.321V36.35Z" fill="#001C3D"/>
<line x1="1.5" y1="-6.55671e-08" x2="1.50001" y2="125" stroke="#FFD44A" stroke-width="3"/>
<line x1="177" y1="62.5" y2="62.5" stroke="#FFD44A" stroke-width="3"/>
</svg>