<svg width="338" height="64" viewBox="0 0 338 64" fill="none" xmlns="http://www.w3.org/2000/svg">
<path d="M33.3988 21.1C30.7488 21.1 29.0488 22.5 27.5988 24.6C26.7988 21.9 24.8488 21.1 22.8488 21.1C20.1988 21.1 18.5488 22.7 17.1488 24.75L16.8488 21.65H13.5988V48H17.4488V27.55C18.8988 25.3 20.3988 24.4 22.0488 24.4C23.9488 24.4 24.0988 25.75 24.0988 29.1V48H27.9988V27.55C29.4488 25.3 30.9988 24.4 32.5988 24.4C34.4988 24.4 34.6488 25.75 34.6488 29.1V48H38.4988V28.4C38.4988 22.35 35.9488 21.1 33.3988 21.1ZM67.4293 42.25V29.6C67.4293 24.4 64.1293 21.1 57.5793 21.1C54.9793 21.1 52.1793 21.6 48.9293 22.75L50.0793 25.95C52.7793 25 55.1793 24.6 56.9293 24.6C60.8293 24.6 63.1793 26 63.1793 29.85V32H59.2793C51.3293 32 46.9793 35.05 46.9793 40.45C46.9793 45.35 50.1793 48.55 55.4793 48.55C58.8793 48.55 61.8293 47.3 63.7293 44.85C64.4293 47.25 66.2793 48.3 68.5293 48.6L69.5793 45.6C68.0793 45.15 67.4293 44.35 67.4293 42.25ZM56.5293 45.4C53.0793 45.4 51.4793 43.7 51.4793 40.4C51.4793 37 53.5793 34.9 59.3793 34.9H63.1793V41.65C61.6293 44 59.1293 45.4 56.5293 45.4ZM81.0098 48H85.2098V28.85C86.6098 26.75 89.2598 24.45 92.3598 24.45C96.3098 24.45 96.8598 26.6 96.8598 32V48H101.06V28.9C101.06 24 98.8098 21.1 93.6598 21.1C90.5598 21.1 87.0598 22.65 84.9598 25.35L84.6098 21.65H81.0098V48ZM113.49 48H117.69V28.85C119.09 26.75 121.74 24.45 124.84 24.45C128.79 24.45 129.34 26.6 129.34 32V48H133.54V28.9C133.54 24 131.29 21.1 126.14 21.1C123.04 21.1 119.54 22.65 117.44 25.35L117.09 21.65H113.49V48ZM167.871 21.65H163.521L156.071 44.8L148.521 21.65H144.071L153.221 48H154.621C153.271 52.05 151.671 54.3 146.271 55.25L146.871 58.6C153.871 57.85 156.821 53.55 158.671 48.15L167.871 21.65Z" fill="#001C3D"/>
<path d="M193.049 52.65C191.249 52.65 190.049 51.4 190.049 49.7C190.049 48 191.249 46.75 193.049 46.75C194.899 46.75 196.149 48 196.149 49.7C196.149 51.4 194.899 52.65 193.049 52.65ZM196.399 40.35H184.349V37H192.199V17.35H184.099V14H203.799V17.35H196.399V40.35ZM220.029 51.45L215.829 50.95V14H220.029V51.45ZM237.579 40.35H232.179L220.479 28.4L233.429 14H238.979L225.779 28.45L237.579 40.35ZM258.06 40.9C250.66 40.9 246.66 35.25 246.66 27.15C246.66 18.85 250.61 13.45 258.01 13.45C265.36 13.45 269.36 19.1 269.36 27.2C269.36 35.5 265.46 40.9 258.06 40.9ZM258.06 37.45C262.56 37.45 264.81 34.15 264.81 27.2C264.81 20.15 262.56 16.9 258.01 16.9C253.46 16.9 251.21 20.15 251.21 27.15C251.21 34.15 253.51 37.45 258.06 37.45ZM297.84 40.9C295.19 40.9 293.49 39.5 292.04 37.4C291.24 40.1 289.29 40.9 287.29 40.9C284.64 40.9 282.99 39.3 281.59 37.25L281.29 40.35H278.04V14H281.89V34.45C283.34 36.7 284.84 37.6 286.49 37.6C288.39 37.6 288.54 36.25 288.54 32.9V14H292.44V34.45C293.89 36.7 295.44 37.6 297.04 37.6C298.94 37.6 299.09 36.25 299.09 32.9V14H302.94V33.6C302.94 39.65 300.39 40.9 297.84 40.9ZM322.971 52.65C321.171 52.65 319.971 51.4 319.971 49.7C319.971 48 321.171 46.75 322.971 46.75C324.821 46.75 326.071 48 326.071 49.7C326.071 51.4 324.821 52.65 322.971 52.65ZM326.321 40.35H314.271V37H322.121V17.35H314.021V14H333.721V17.35H326.321V40.35Z" fill="#001C3D"/>
<line x1="1.5" y1="-6.55671e-08" x2="1.5" y2="64" stroke="#FFD44A" stroke-width="3"/>
<line x1="171" y1="1.5" y2="1.5" stroke="#FFD44A" stroke-width="3"/>
<line y1="-1.5" x2="64" y2="-1.5" transform="matrix(4.37114e-08 -1 -1 -4.37114e-08 171 64)" stroke="#FFD44A" stroke-width="3"/>
<line x1="171" y1="62.5" x2="338" y2="62.5" stroke="#FFD44A" stroke-width="3"/>
</svg>
