<svg width="32" height="32" viewBox="0 0 32 32" fill="none" xmlns="http://www.w3.org/2000/svg">
<path fill-rule="evenodd" clip-rule="evenodd" d="M9.12137 7.00006L24.6777 22.5564L22.5564 24.6777L7.00005 9.12139L9.12137 7.00006Z" fill="#4A9497"/>
<path fill-rule="evenodd" clip-rule="evenodd" d="M7.1214 22.5564L22.6778 7.00002L24.7991 9.12134L9.24272 24.6777L7.1214 22.5564Z" fill="#4A9497"/>
<path d="M0 0V-3H-3V0H0ZM32 0H35V-3H32V0ZM32 32V35H35V32H32ZM0 32H-3V35H0V32ZM0 3H32V-3H0V3ZM29 0V32H35V0H29ZM32 29H0V35H32V29ZM3 32V0H-3V32H3Z" fill="#4A9497"/>
</svg>
