<?xml version="1.0" encoding="utf-8"?>
<!-- Generator: Adobe Illustrator 23.0.2, SVG Export Plug-In . SVG Version: 6.00 Build 0)  -->
<svg version="1.1" id="Layer_1" xmlns="http://www.w3.org/2000/svg" xmlns:xlink="http://www.w3.org/1999/xlink" x="0px" y="0px"
	 viewBox="0 0 411 458.6" style="enable-background:new 0 0 411 458.6;" xml:space="preserve">
<style type="text/css">
	.st0{fill:#F2F2F2;}
	.st1{display:none;}
	.st2{display:inline;fill:#545454;}
	.st3{fill:#262626;}
</style>
<rect x="510.2" y="590.1" class="st0" width="205.5" height="458.6"/>
<rect x="-542.9" y="590.1" class="st0" width="205.5" height="458.6"/>
<g>
	<rect x="13.5" y="1190.3" class="st0" width="27.4" height="94.5"/>
	<polygon class="st0" points="314.9,1456.5 314.9,1493.9 342.3,1493.9 342.3,1363 369.7,1363 369.7,1576.7 397.1,1576.7 
		397.1,1606.1 424.5,1606.1 424.5,1648.9 205.3,1648.9 205.3,1606.1 177.9,1606.1 177.9,1576.7 150.5,1576.7 150.5,1363 123.1,1363 
		123.1,1493.9 95.7,1493.9 95.7,1456.5 68.3,1456.5 68.3,1190.3 232.7,1190.3 232.7,1284.8 260.1,1284.8 260.1,1190.3 287.5,1190.3 
		287.5,1456.5 	"/>
</g>
<polygon class="st0" points="41.1,717.6 13.7,717.6 13.7,680.2 -13.7,680.2 -13.7,811.1 -41.1,811.1 -41.1,597.4 -68.5,597.4 
	-68.5,568 -95.9,568 -95.9,525.2 -68.5,525.2 -41.1,525.2 -13.7,525.2 13.7,525.2 41.1,525.2 68.5,525.2 95.9,525.2 95.9,889.3 
	68.5,889.3 68.5,983.8 41.1,983.8 "/>
<g class="st1">
	<rect x="232.7" y="590.1" class="st2" width="27.4" height="94.5"/>
	<polygon class="st2" points="424.5,1005.9 397.1,1005.9 397.1,976.5 369.7,976.5 369.7,762.8 342.3,762.8 342.3,893.7 314.9,893.7 
		314.9,856.3 287.5,856.3 287.5,590.1 314.9,590.1 342.3,590.1 369.7,590.1 397.1,590.1 424.5,590.1 	"/>
</g>
<path class="st3" d="M891.3,775.7v-3.6c0-1.9-0.1-2.2-0.5-3c-0.7-1-1.9-1.6-3.2-1.6c-1.6,0-2.9,0.7-4.4,2.5
	c-0.4-1.5-1.9-2.6-3.5-2.5c-1.7,0-3.3,0.9-4.3,2.2v-0.2c0-0.7-0.1-1.3-0.4-1.9l0,0c-1.4,0.4-2.8,0.6-4.2,0.7v0.9h0.1
	c1.4,0,1.6,0.3,1.7,2.7v3.6c0,2.4-0.2,2.7-1.7,2.8h-0.1v0.9h6.2v-0.9h-0.1c-1.3-0.1-1.5-0.3-1.5-2.8v-4.6c0.1,0.1,0.1,0.1,0.7-0.6
	c0.6-0.8,1.5-1.2,2.5-1.3c0.6,0,1.2,0.3,1.6,0.8c0.3,0.7,0.4,1.5,0.3,2.3v3.6c0,2.5-0.1,2.7-1.5,2.8h-0.1v0.9h6v-0.9h-0.1
	c-1.3-0.1-1.4-0.3-1.4-2.8v-4.5c1.2-1.6,2.1-2.2,3.3-2.2c1.3,0,1.9,0.8,1.9,2.7v4c0,2.5-0.1,2.7-1.5,2.8H887v0.9h6.3v-0.9h-0.2
	C891.5,778.4,891.4,778.2,891.3,775.7z"/>
<path class="st3" d="M905.6,778.4c-0.7,0-0.8-0.5-0.8-2.1v-4.8c0-1.5-0.1-2-0.8-2.7c-1.1-0.9-2.5-1.4-3.8-1.2
	c-1.3,0-2.6,0.2-3.7,0.8c-0.8,0.3-1.4,1.1-1.6,2c0,0.6,0.5,1,1.1,1c0,0,0,0,0.1,0c0.8,0,1.2-0.5,1.4-1.3c0-0.4,0.2-0.8,0.4-1
	c0.5-0.3,1.1-0.5,1.7-0.5c0.8-0.1,1.6,0.3,2.1,0.9c0.2,0.5,0.3,1.1,0.3,1.7v0.7l-1.6,0.6c-1.4,0.6-2.7,1.2-4,2
	c-1.3,0.8-1.8,1.6-1.8,2.7c0,1.4,1.2,2.5,3,2.5c1.7-0.1,3.3-0.7,4.6-1.8c0.3,1.1,1.4,1.9,2.6,1.8c1.4,0.1,2.6-0.9,2.8-2.3
	c0-0.1,0-0.1,0-0.2h-0.7C906.5,777.9,906.1,778.4,905.6,778.4z M901.9,776.9c-0.8,0.8-1.8,1.3-2.9,1.5c-0.9,0-1.6-0.8-1.6-1.7
	c0,0,0,0,0-0.1c0-1.4,1-2.4,3.8-3.5l0.7-0.3V776.9z"/>
<path class="st3" d="M916.6,778.5h-0.2v0.9h6.5v-0.9h-0.2c-1.5-0.1-1.6-0.3-1.7-2.8V772c0.1-1,0-2-0.5-2.9c-0.7-1-1.9-1.6-3.1-1.6
	c-1.8,0-3.4,0.8-4.5,2.3v-0.3c0-0.6-0.1-1.3-0.4-1.9l0,0c-1.4,0.4-2.8,0.6-4.2,0.8v0.9h0.1c1.5,0.1,1.7,0.3,1.7,2.7v3.6
	c0,2.4-0.2,2.7-1.7,2.8h-0.1v0.9h6.4v-0.9h-0.2c-1.4-0.1-1.6-0.3-1.6-2.8V771c1-1.5,2.1-2.2,3.3-2.2c1.1,0,1.9,0.8,2,1.8
	c0,0.1,0,0.2,0,0.3v4.6C918.2,778.2,918.1,778.4,916.6,778.5z"/>
<path class="st3" d="M928.7,775.7v-4.6c1-1.5,2.1-2.2,3.3-2.2c1.1,0,1.9,0.8,2,1.8c0,0.1,0,0.2,0,0.3v4.6c0,2.5-0.1,2.7-1.6,2.8
	h-0.2v0.9h6.5v-0.9h-0.2c-1.5-0.1-1.6-0.3-1.7-2.8v-3.7c0.1-1,0-2-0.5-2.9c-0.7-1-1.9-1.6-3.1-1.6c-1.8,0-3.4,0.8-4.5,2.3v-0.3
	c0-0.6-0.1-1.3-0.4-1.9h-0.1c-1.4,0.4-2.8,0.6-4.2,0.8v0.9h0.1c1.5,0.1,1.7,0.3,1.7,2.7v3.6c0,2.4-0.2,2.7-1.7,2.8H924v0.9h6.4v-0.9
	h-0.1C928.8,778.4,928.7,778.2,928.7,775.7z"/>
<path class="st3" d="M947.8,768v0.9h0.3c0.8,0,1.2,0.3,1.2,0.7c0,0.2-0.1,0.5-0.2,0.7c-0.2,0.4-0.3,0.8-0.4,0.8l-2.3,5.5l-2.9-5.9
	c-0.4-0.8-0.4-0.9-0.4-1.1c0-0.4,0.4-0.7,1-0.7h0.2V768h-6v0.9h0.2c0.9,0,1.1,0.3,1.9,1.9l4.5,8.9l-0.8,2.1c-0.4,1-0.8,1.3-2.2,1.8
	c-1.1,0.4-1.6,0.9-1.6,1.7c0,0.7,0.6,1.2,1.2,1.2h0.1c1.1,0,1.9-0.8,2.9-3.3l5-11.5c0.9-2.1,1.3-2.6,2.4-2.8h0.1V768H947.8z"/>
<path class="st3" d="M875.5,800v-8.1h-0.3c-1.6,0.4-3.1,0.7-4.7,0.8v0.9h0.4c1.5,0,1.8,0.4,1.8,2.7v3.7c-0.1,2.4-0.2,2.7-1.7,2.8
	h-0.5v0.9h6.9v-0.9h-0.2C875.7,802.7,875.5,802.4,875.5,800z"/>
<path class="st3" d="M875.7,786.3c0-1-0.8-1.8-1.8-1.8s-1.8,0.8-1.8,1.8s0.8,1.7,1.8,1.8C874.9,788.1,875.7,787.3,875.7,786.3
	L875.7,786.3z"/>
<path class="st3" d="M890.3,800.8l-3.7-4.5c0.6-0.5,0.7-0.5,1.2-0.9c2-1.6,2.7-2.1,3.9-2.2h0.1v-0.9h-5.2v0.9h0.2
	c0.6,0,0.9,0.2,0.9,0.6c0,0.3-0.2,0.5-0.4,0.7c-0.8,0.7-1.6,1.4-2.5,2l-1.2,0.8v-12.8h-0.1c-1.5,0.4-2.9,0.6-4.4,0.8v0.9h0.1
	c1.4,0.1,1.8,0.5,1.7,2.4v11.3c-0.1,2.5-0.2,2.7-1.7,2.8h-0.3v0.9h6.5v-0.9h-0.1c-1.3-0.1-1.5-0.4-1.5-2.8v-1.5l0.7-0.5l2.6,3.1
	c0.8,1,0.8,1,0.8,1.2c0,0.4-0.4,0.6-1.1,0.6h-0.1v0.9h6.2v-0.9h-0.1C892,802.6,891.6,802.3,890.3,800.8z"/>
<path class="st3" d="M900,791.8c-3.4-0.2-6.2,2.4-6.4,5.8c0,0.1,0,0.3,0,0.4c0,3.5,2.7,6.1,6.5,6.1c3.4,0.1,6.2-2.7,6.2-6.1
	c0.1-3.4-2.7-6.2-6.1-6.2C900.2,791.8,900.1,791.8,900,791.8z M900,803.2c-2.3,0-3.2-1.6-3.2-5.2c0-3.6,1-5.2,3.2-5.2
	s3.2,1.6,3.2,5.1C903.2,801.6,902.2,803.2,900,803.2z"/>
<path class="st3" d="M928.3,800v-3.6c0-1.9-0.1-2.2-0.5-3c-0.7-1-1.9-1.6-3.2-1.6c-1.6,0-2.9,0.7-4.4,2.5c-0.4-1.5-1.9-2.6-3.5-2.5
	c-1.7,0-3.3,0.9-4.3,2.2v-0.2c0-0.7-0.1-1.3-0.4-1.9h-0.1c-1.4,0.4-2.8,0.6-4.2,0.7v0.9h0.1c1.4,0,1.6,0.3,1.7,2.7v3.6
	c0,2.4-0.2,2.7-1.7,2.8h-0.1v0.9h6.2v-0.9h-0.1c-1.3-0.1-1.5-0.3-1.5-2.8v-4.6c0.1-0.1,0.1-0.1,0.7-0.8c0.6-0.8,1.5-1.2,2.5-1.3
	c0.6,0,1.2,0.3,1.6,0.8c0.3,0.7,0.4,1.5,0.3,2.3v3.6c0,2.5-0.1,2.7-1.5,2.8h-0.1v0.9h6v-0.9h-0.1c-1.3-0.1-1.4-0.3-1.4-2.8v-4.5
	c1.2-1.6,2.1-2.2,3.3-2.2c1.3,0,1.9,0.8,1.9,2.7v4c0,2.5-0.1,2.7-1.5,2.8h-0.1v0.9h6.3v-0.9H930C928.5,802.7,928.4,802.5,928.3,800z
	"/>
<path class="st3" d="M933.4,786.3c0,1,0.8,1.8,1.8,1.8s1.8-0.8,1.8-1.8s-0.8-1.8-1.8-1.8l0,0C934.2,784.5,933.4,785.3,933.4,786.3z"
	/>
<path class="st3" d="M936.7,800v-8.1h-0.2c-1.6,0.4-3.1,0.7-4.7,0.8v0.9h0.4c1.5,0,1.8,0.4,1.8,2.7v3.7c-0.1,2.4-0.2,2.7-1.7,2.8
	h-0.4v0.9h6.9v-0.9h-0.3C937,802.7,936.8,802.4,936.7,800z"/>
<polygon class="st3" points="935,753.6 951.6,753.6 951.6,748.7 904.7,748.7 904.7,743.9 898.1,743.9 898.1,739.1 921.2,739.1 
	921.2,734.2 883.5,734.2 883.5,729.4 878.3,729.4 878.3,724.6 870.7,724.6 870.7,729.4 870.7,734.2 870.7,739.1 870.7,743.9 
	870.7,748.7 870.7,753.6 870.7,758.4 935,758.4 "/>
<rect x="935" y="714.9" class="st3" width="16.7" height="4.8"/>
<polygon class="st3" points="883.5,695.6 921.2,695.6 921.2,700.4 898.1,700.4 898.1,705.2 904.7,705.2 904.7,710.1 951.6,710.1 
	951.6,705.2 951.6,700.4 951.6,695.6 951.6,690.7 951.6,685.9 878.3,685.9 878.3,690.7 883.5,690.7 "/>
<g>
	<rect x="219.5" y="0" class="st0" width="27.2" height="94.6"/>
	<polygon class="st0" points="356.1,386.3 356.1,172.8 328.9,172.8 328.9,303.6 301.7,303.6 301.7,266.2 273.9,266.2 273.9,0.6 
		301.7,0.6 328.9,0.6 356.1,0.6 383.8,0.6 411,0.6 411,415.8 383.8,415.8 383.8,386.3 	"/>
</g>
<g>
	<rect x="233" y="590.1" class="st0" width="27.2" height="94.6"/>
	<polygon class="st0" points="369.5,976.4 369.5,762.9 342.3,762.9 342.3,893.7 315.2,893.7 315.2,856.3 287.4,856.3 287.4,590.6 
		315.2,590.6 342.3,590.6 369.5,590.6 397.3,590.6 424.5,590.6 424.5,1005.9 397.3,1005.9 397.3,976.4 	"/>
</g>
</svg>
