<svg xmlns="http://www.w3.org/2000/svg" viewBox="0 0 80.90186 72.49194"><defs><style>.cls-1{fill:#c9cacb;}.cls-2{fill:#ababab;}</style></defs><title>favicon</title><g id="Layer_2" data-name="Layer 2"><g id="Layer_1-2" data-name="Layer 1"><rect class="cls-1" x="64.22949" y="67.65918" width="16.67236" height="4.83276"/><polygon class="cls-2" points="33.95 19.331 27.344 19.331 27.344 14.499 50.433 14.499 50.433 9.666 12.748 9.666 12.748 4.833 7.552 4.833 7.552 0 0 0 0 38.662 7.552 38.662 7.552 43.495 12.748 43.495 12.748 48.328 50.433 48.328 50.433 53.161 27.344 53.161 27.344 57.994 33.95 57.994 33.95 62.826 80.902 62.826 80.902 33.83 64.229 33.83 64.229 28.997 80.902 28.997 80.902 24.164 33.95 24.164 33.95 19.331"/></g></g></svg>