<svg xmlns="http://www.w3.org/2000/svg" viewBox="0 0 80.90195 72.49195"><defs><style>.cls-1{fill:#c9cacb;}.cls-2{fill:#ababab;}.cls-3{fill:#1a1a1a;}.cls-4{fill:#575757;}</style></defs><title>menuMotif</title><g id="Layer_2" data-name="Layer 2"><g id="Layer_1-2" data-name="Layer 1"><rect class="cls-1" x="64.22959" y="67.65919" width="16.67236" height="4.83276"/><polygon class="cls-2" points="33.95 19.331 27.344 19.331 27.344 14.499 50.433 14.499 50.433 9.666 12.748 9.666 12.748 4.833 7.552 4.833 7.552 0 0 0 0 38.662 7.552 38.662 7.552 43.495 12.748 43.495 12.748 48.328 50.433 48.328 50.433 53.161 27.344 53.161 27.344 57.994 33.95 57.994 33.95 62.826 80.902 62.826 80.902 33.83 64.23 33.83 64.23 28.997 80.902 28.997 80.902 24.164 33.95 24.164 33.95 19.331"/><polygon class="cls-3" points="33.95 62.826 33.95 57.994 27.344 57.994 27.344 53.161 50.433 53.161 50.433 48.328 12.748 48.328 12.748 43.495 7.553 43.495 7.553 38.662 0 38.662 0 43.495 0 48.328 0 53.161 0 57.994 0 62.826 0 67.659 0 72.492 64.23 72.492 64.23 67.659 80.902 67.659 80.902 62.826 33.95 62.826"/><rect class="cls-4" x="64.22998" y="28.99683" width="16.67188" height="4.83276"/><polygon class="cls-4" points="7.553 0 7.553 4.833 12.748 4.833 12.748 9.666 50.433 9.666 50.433 14.499 27.344 14.499 27.344 19.331 33.95 19.331 33.95 24.164 80.902 24.164 80.902 19.331 80.902 14.499 80.902 9.666 80.902 4.833 80.902 0 7.553 0"/></g></g></svg>