<?xml version="1.0" encoding="utf-8"?>
<!-- Generator: Adobe Illustrator 23.0.2, SVG Export Plug-In . SVG Version: 6.00 Build 0)  -->
<svg version="1.1" id="Layer_1" xmlns="http://www.w3.org/2000/svg" xmlns:xlink="http://www.w3.org/1999/xlink" x="0px" y="0px"
	 viewBox="0 0 411 458.6" style="enable-background:new 0 0 411 458.6;" xml:space="preserve">
<style type="text/css">
	.st0{fill:#F2F2F2;}
	.st1{display:none;}
	.st2{display:inline;fill:#545454;}
	.st3{fill:#262626;}
</style>
<rect x="205.5" class="st0" width="205.5" height="458.6"/>
<rect x="-556.4" class="st0" width="205.5" height="458.6"/>
<g>
	<rect class="st0" width="27.4" height="94.5"/>
	<polygon class="st0" points="301.4,266.2 301.4,303.6 328.8,303.6 328.8,172.7 356.2,172.7 356.2,386.4 383.6,386.4 383.6,415.8 
		411,415.8 411,458.6 191.8,458.6 191.8,415.8 164.4,415.8 164.4,386.4 137,386.4 137,172.7 109.6,172.7 109.6,303.6 82.2,303.6 
		82.2,266.2 54.8,266.2 54.8,0 219.2,0 219.2,94.5 246.6,94.5 246.6,0 274,0 274,266.2 	"/>
</g>
<polygon class="st0" points="-265.9,266.2 -238.5,266.2 -238.5,303.6 -211.1,303.6 -211.1,172.7 -183.7,172.7 -183.7,386.4 
	-156.3,386.4 -156.3,415.8 -128.9,415.8 -128.9,458.6 -156.3,458.6 -183.7,458.6 -211.1,458.6 -238.5,458.6 -265.9,458.6 
	-293.3,458.6 -320.7,458.6 -320.7,94.5 -293.3,94.5 -293.3,0 -265.9,0 "/>
<g class="st1">
	<rect x="219.2" class="st2" width="27.4" height="94.5"/>
	<polygon class="st2" points="411,415.8 383.6,415.8 383.6,386.4 356.2,386.4 356.2,172.7 328.8,172.7 328.8,303.6 301.4,303.6 
		301.4,266.2 274,266.2 274,0 301.4,0 328.8,0 356.2,0 383.6,0 411,0 	"/>
</g>
<g id="b70b493c-9b52-4ee6-9132-556f82d6ed40">
	<g id="a97eacbc-5f2c-4e24-be51-94ad3a061e63">
		<path class="st3" d="M877.8,185.6V182c0-1.9-0.1-2.2-0.5-3c-0.7-1-1.9-1.6-3.2-1.6c-1.6,0-2.9,0.7-4.4,2.5
			c-0.4-1.5-1.9-2.6-3.5-2.5c-1.7,0-3.3,0.9-4.3,2.2v-0.2c0-0.7-0.1-1.3-0.4-1.9l0,0c-1.4,0.4-2.8,0.6-4.2,0.7v0.9h0.1
			c1.4,0,1.6,0.3,1.7,2.7v3.6c0,2.4-0.2,2.7-1.7,2.8h-0.1v0.9h6.2v-0.9h-0.1c-1.3-0.1-1.5-0.3-1.5-2.8v-4.6c0.1,0.1,0.1,0.1,0.7-0.6
			c0.6-0.8,1.5-1.2,2.5-1.3c0.6,0,1.2,0.3,1.6,0.8c0.3,0.7,0.4,1.5,0.3,2.3v3.6c0,2.5-0.1,2.7-1.5,2.8h-0.1v0.9h6v-0.9h-0.1
			c-1.3-0.1-1.4-0.3-1.4-2.8v-4.5c1.2-1.6,2.1-2.2,3.3-2.2c1.3,0,1.9,0.8,1.9,2.7v4c0,2.5-0.1,2.7-1.5,2.8h-0.1v0.9h6.3v-0.9h-0.2
			C878,188.3,877.9,188.1,877.8,185.6z"/>
		<path class="st3" d="M892.1,188.3c-0.7,0-0.8-0.5-0.8-2.1v-4.8c0-1.5-0.1-2-0.8-2.7c-1.1-0.9-2.5-1.4-3.8-1.2
			c-1.3,0-2.6,0.2-3.7,0.8c-0.8,0.3-1.4,1.1-1.6,2c0,0.6,0.5,1,1.1,1c0,0,0,0,0.1,0c0.8,0,1.2-0.5,1.4-1.3c0-0.4,0.2-0.8,0.4-1
			c0.5-0.3,1.1-0.5,1.7-0.5c0.8-0.1,1.6,0.3,2.1,0.9c0.2,0.5,0.3,1.1,0.3,1.7v0.7l-1.6,0.6c-1.4,0.6-2.7,1.2-4,2
			c-1.3,0.8-1.8,1.6-1.8,2.7c0,1.4,1.2,2.5,3,2.5c1.7-0.1,3.3-0.7,4.6-1.8c0.3,1.1,1.4,1.9,2.6,1.8c1.4,0.1,2.6-0.9,2.8-2.3
			c0-0.1,0-0.1,0-0.2h-0.7C893,187.8,892.6,188.3,892.1,188.3z M888.4,186.8c-0.8,0.8-1.8,1.3-2.9,1.5c-0.9,0-1.6-0.8-1.6-1.7
			c0,0,0,0,0-0.1c0-1.4,1-2.4,3.8-3.5l0.7-0.3V186.8z"/>
		<path class="st3" d="M903.1,188.4h-0.2v0.9h6.5v-0.9h-0.2c-1.5-0.1-1.6-0.3-1.7-2.8v-3.7c0.1-1,0-2-0.5-2.9
			c-0.7-1-1.9-1.6-3.1-1.6c-1.8,0-3.4,0.8-4.5,2.3v-0.3c0-0.6-0.1-1.3-0.4-1.9l0,0c-1.4,0.4-2.8,0.6-4.2,0.8v0.9h0.1
			c1.5,0.1,1.7,0.3,1.7,2.7v3.6c0,2.4-0.2,2.7-1.7,2.8h-0.1v0.9h6.4v-0.9H901c-1.4-0.1-1.6-0.3-1.6-2.8v-4.6c1-1.5,2.1-2.2,3.3-2.2
			c1.1,0,1.9,0.8,2,1.8c0,0.1,0,0.2,0,0.3v4.6C904.7,188.1,904.6,188.3,903.1,188.4z"/>
		<path class="st3" d="M915.2,185.6V181c1-1.5,2.1-2.2,3.3-2.2c1.1,0,1.9,0.8,2,1.8c0,0.1,0,0.2,0,0.3v4.6c0,2.5-0.1,2.7-1.6,2.8
			h-0.2v0.9h6.5v-0.9H925c-1.5-0.1-1.6-0.3-1.7-2.8v-3.7c0.1-1,0-2-0.5-2.9c-0.7-1-1.9-1.6-3.1-1.6c-1.8,0-3.4,0.8-4.5,2.3v-0.3
			c0-0.6-0.1-1.3-0.4-1.9h-0.1c-1.4,0.4-2.8,0.6-4.2,0.8v0.9h0.1c1.5,0.1,1.7,0.3,1.7,2.7v3.6c0,2.4-0.2,2.7-1.7,2.8h-0.1v0.9h6.4
			v-0.9h-0.1C915.3,188.3,915.2,188.1,915.2,185.6z"/>
		<path class="st3" d="M934.3,177.9v0.9h0.3c0.8,0,1.2,0.3,1.2,0.7c0,0.2-0.1,0.5-0.2,0.7c-0.2,0.4-0.3,0.8-0.4,0.8l-2.3,5.5
			l-2.9-5.9c-0.4-0.8-0.4-0.9-0.4-1.1c0-0.4,0.4-0.7,1-0.7h0.2v-0.9h-6v0.9h0.2c0.9,0,1.1,0.3,1.9,1.9l4.5,8.9l-0.8,2.1
			c-0.4,1-0.8,1.3-2.2,1.8c-1.1,0.4-1.6,0.9-1.6,1.7c0,0.7,0.6,1.2,1.2,1.2h0.1c1.1,0,1.9-0.8,2.9-3.3l5-11.5
			c0.9-2.1,1.3-2.6,2.4-2.8h0.1v-0.9H934.3z"/>
		<path class="st3" d="M862,209.9v-8.1h-0.3c-1.6,0.4-3.1,0.7-4.7,0.8v0.9h0.4c1.5,0,1.8,0.4,1.8,2.7v3.7c-0.1,2.4-0.2,2.7-1.7,2.8
			H857v0.9h6.9v-0.9h-0.2C862.2,212.6,862,212.3,862,209.9z"/>
		<path class="st3" d="M862.2,196.2c0-1-0.8-1.8-1.8-1.8s-1.8,0.8-1.8,1.8s0.8,1.7,1.8,1.8C861.4,198,862.2,197.2,862.2,196.2
			L862.2,196.2z"/>
		<path class="st3" d="M876.8,210.7l-3.7-4.5c0.6-0.5,0.7-0.5,1.2-0.9c2-1.6,2.7-2.1,3.9-2.2h0.1v-0.9h-5.2v0.9h0.2
			c0.6,0,0.9,0.2,0.9,0.6c0,0.3-0.2,0.5-0.4,0.7c-0.8,0.7-1.6,1.4-2.5,2l-1.2,0.8v-12.8H870c-1.5,0.4-2.9,0.6-4.4,0.8v0.9h0.1
			c1.4,0.1,1.8,0.5,1.7,2.4v11.3c-0.1,2.5-0.2,2.7-1.7,2.8h-0.3v0.9h6.5v-0.9h-0.1c-1.3-0.1-1.5-0.4-1.5-2.8v-1.5l0.7-0.5l2.6,3.1
			c0.8,1,0.8,1,0.8,1.2c0,0.4-0.4,0.6-1.1,0.6h-0.1v0.9h6.2v-0.9h-0.1C878.5,212.5,878.1,212.2,876.8,210.7z"/>
		<path class="st3" d="M886.5,201.7c-3.4-0.2-6.2,2.4-6.4,5.8c0,0.1,0,0.3,0,0.4c0,3.5,2.7,6.1,6.5,6.1c3.4,0.1,6.2-2.7,6.2-6.1
			c0.1-3.4-2.7-6.2-6.1-6.2C886.7,201.7,886.6,201.7,886.5,201.7z M886.5,213.1c-2.3,0-3.2-1.6-3.2-5.2c0-3.6,1-5.2,3.2-5.2
			s3.2,1.6,3.2,5.1C889.7,211.5,888.7,213.1,886.5,213.1z"/>
		<path class="st3" d="M914.8,209.9v-3.6c0-1.9-0.1-2.2-0.5-3c-0.7-1-1.9-1.6-3.2-1.6c-1.6,0-2.9,0.7-4.4,2.5
			c-0.4-1.5-1.9-2.6-3.5-2.5c-1.7,0-3.3,0.9-4.3,2.2v-0.2c0-0.7-0.1-1.3-0.4-1.9h-0.1c-1.4,0.4-2.8,0.6-4.2,0.7v0.9h0.1
			c1.4,0,1.6,0.3,1.7,2.7v3.6c0,2.4-0.2,2.7-1.7,2.8h-0.1v0.9h6.2v-0.9h-0.1c-1.3-0.1-1.5-0.3-1.5-2.8v-4.6c0.1-0.1,0.1-0.1,0.7-0.8
			c0.6-0.8,1.5-1.2,2.5-1.3c0.6,0,1.2,0.3,1.6,0.8c0.3,0.7,0.4,1.5,0.3,2.3v3.6c0,2.5-0.1,2.7-1.5,2.8h-0.1v0.9h6v-0.9h-0.1
			c-1.3-0.1-1.4-0.3-1.4-2.8v-4.5c1.2-1.6,2.1-2.2,3.3-2.2c1.3,0,1.9,0.8,1.9,2.7v4c0,2.5-0.1,2.7-1.5,2.8h-0.1v0.9h6.3v-0.9h-0.2
			C915,212.6,914.9,212.4,914.8,209.9z"/>
		<path class="st3" d="M919.9,196.2c0,1,0.8,1.8,1.8,1.8s1.8-0.8,1.8-1.8s-0.8-1.8-1.8-1.8l0,0C920.7,194.4,919.9,195.2,919.9,196.2
			z"/>
		<path class="st3" d="M923.2,209.9v-8.1H923c-1.6,0.4-3.1,0.7-4.7,0.8v0.9h0.4c1.5,0,1.8,0.4,1.8,2.7v3.7c-0.1,2.4-0.2,2.7-1.7,2.8
			h-0.4v0.9h6.9v-0.9H925C923.5,212.6,923.3,212.3,923.2,209.9z"/>
		<polygon class="st3" points="921.5,163.5 938.1,163.5 938.1,158.6 891.2,158.6 891.2,153.8 884.6,153.8 884.6,149 907.7,149 
			907.7,144.1 870,144.1 870,139.3 864.8,139.3 864.8,134.5 857.2,134.5 857.2,139.3 857.2,144.1 857.2,149 857.2,153.8 
			857.2,158.6 857.2,163.5 857.2,168.3 921.5,168.3 		"/>
		<rect x="921.5" y="124.8" class="st3" width="16.7" height="4.8"/>
		<polygon class="st3" points="870,105.5 907.7,105.5 907.7,110.3 884.6,110.3 884.6,115.1 891.2,115.1 891.2,120 938.1,120 
			938.1,115.1 938.1,110.3 938.1,105.5 938.1,100.6 938.1,95.8 864.8,95.8 864.8,100.6 870,100.6 		"/>
	</g>
</g>
</svg>
