<?xml version="1.0" encoding="utf-8"?>
<!-- Generator: Adobe Illustrator 23.0.2, SVG Export Plug-In . SVG Version: 6.00 Build 0)  -->
<svg version="1.1" id="Layer_1" xmlns="http://www.w3.org/2000/svg" xmlns:xlink="http://www.w3.org/1999/xlink" x="0px" y="0px"
	 viewBox="0 0 411 458.6" style="enable-background:new 0 0 411 458.6;" xml:space="preserve">
<style type="text/css">
	.st0{fill:#E6E6E6;}
	.st1{display:none;}
	.st2{display:inline;fill:#545454;}
</style>
<polygon class="st0" points="383.6,415.8 383.6,386.4 356.2,386.4 356.2,172.7 328.8,172.7 328.8,303.6 301.4,303.6 301.4,266.2 
	274,266.2 274,0 246.6,0 246.6,94.5 219.2,94.5 219.2,0 54.8,0 27.4,0 0,0 0,94.5 0,458.6 27.4,458.6 54.8,458.6 82.2,458.6 
	109.6,458.6 137,458.6 164.4,458.6 191.8,458.6 411,458.6 411,415.8 "/>
<g class="st1">
	<rect x="219.2" class="st2" width="27.4" height="94.5"/>
	<polygon class="st2" points="411,415.8 383.6,415.8 383.6,386.4 356.2,386.4 356.2,172.7 328.8,172.7 328.8,303.6 301.4,303.6 
		301.4,266.2 274,266.2 274,0 301.4,0 328.8,0 356.2,0 383.6,0 411,0 	"/>
</g>
</svg>
