<?xml version="1.0" encoding="utf-8"?>
<!-- Generator: Adobe Illustrator 23.0.2, SVG Export Plug-In . SVG Version: 6.00 Build 0)  -->
<svg version="1.1" id="Layer_1" xmlns="http://www.w3.org/2000/svg" xmlns:xlink="http://www.w3.org/1999/xlink" x="0px" y="0px"
	 viewBox="0 0 411 458.6" style="enable-background:new 0 0 411 458.6;" xml:space="preserve">
<style type="text/css">
	.st0{fill:#F2F2F2;}
	.st1{display:none;}
	.st2{display:inline;fill:#545454;}
</style>
<rect x="205.5" y="0" class="st0" width="205.5" height="458.6"/>
<g>
	<rect x="383.6" y="0" class="st0" width="27.4" height="94.5"/>
	<polygon class="st0" points="137,266.2 137,0 164.4,0 164.4,94.5 191.8,94.5 191.8,0 356.2,0 356.2,266.2 328.8,266.2 328.8,303.6 
		301.4,303.6 301.4,172.7 274,172.7 274,386.4 246.6,386.4 246.6,415.8 219.2,415.8 219.2,458.6 0,458.6 0,415.8 27.4,415.8 
		27.4,386.4 54.8,386.4 54.8,172.7 82.2,172.7 82.2,303.6 109.6,303.6 109.6,266.2 	"/>
</g>
<polygon class="st0" points="356.2,0 383.6,0 383.6,94.5 411,94.5 411,458.6 383.6,458.6 356.2,458.6 328.8,458.6 301.4,458.6 
	274,458.6 246.6,458.6 219.2,458.6 219.2,415.8 246.6,415.8 246.6,386.4 274,386.4 274,172.7 301.4,172.7 301.4,303.6 328.8,303.6 
	328.8,266.2 356.2,266.2 "/>
<g class="st1">
	<rect x="219.2" class="st2" width="27.4" height="94.5"/>
	<polygon class="st2" points="411,415.8 383.6,415.8 383.6,386.4 356.2,386.4 356.2,172.7 328.8,172.7 328.8,303.6 301.4,303.6 
		301.4,266.2 274,266.2 274,0 301.4,0 328.8,0 356.2,0 383.6,0 411,0 	"/>
</g>
</svg>
