<svg width="32" height="32" viewBox="0 0 32 32" fill="none" xmlns="http://www.w3.org/2000/svg">
<path d="M9.37214 28H4.39643V11.9764H9.37214V28ZM6.88161 9.79066C5.29054 9.79066 4 8.47278 4 6.88167C4 6.1174 4.3036 5.38444 4.844 4.84402C5.38441 4.3036 6.11736 4 6.88161 4C7.64586 4 8.3788 4.3036 8.91921 4.84402C9.45962 5.38444 9.76321 6.1174 9.76321 6.88167C9.76321 8.47278 8.47214 9.79066 6.88161 9.79066ZM27.9946 28H23.0296V20.1998C23.0296 18.3409 22.9921 15.9569 20.4427 15.9569C17.8557 15.9569 17.4593 17.9766 17.4593 20.0659V28H12.4889V11.9764H17.2611V14.1622H17.3307C17.995 12.9032 19.6177 11.5746 22.0386 11.5746C27.0743 11.5746 28 14.8908 28 19.198V28H27.9946Z"/>
</svg>
