<?xml version="1.0" encoding="utf-8"?>
<!-- Generator: Adobe Illustrator 23.0.2, SVG Export Plug-In . SVG Version: 6.00 Build 0)  -->
<svg version="1.1" id="Layer_1" xmlns="http://www.w3.org/2000/svg" xmlns:xlink="http://www.w3.org/1999/xlink" x="0px" y="0px"
	 viewBox="0 0 51 51" style="enable-background:new 0 0 51 51;" xml:space="preserve">
<style type="text/css">
	.st0{fill:#262626;}
</style>
<title>ig</title>
<g id="b37c0c68-7129-4b9a-be05-5e6b66302b44">
	<g id="b7395716-e941-42f2-a96a-cfa182d5554c">
		<path class="st0" d="M25.5,4.6c6.8,0,7.6,0,10.3,0.1c1.6,0,3.2,0.3,4.7,0.9c1.1,0.4,2.1,1.1,2.9,1.9c0.8,0.8,1.5,1.8,1.9,2.9
			c0.6,1.5,0.9,3.1,0.9,4.7c0.1,2.7,0.1,3.5,0.1,10.3s0,7.6-0.1,10.3c0,1.6-0.3,3.2-0.9,4.7c-0.9,2.2-2.6,4-4.8,4.8
			c-1.5,0.6-3.1,0.9-4.7,0.9c-2.7,0.1-3.5,0.1-10.3,0.1s-7.6,0-10.3-0.1c-1.6,0-3.2-0.3-4.7-0.9c-1.1-0.4-2.1-1.1-2.9-1.9
			c-0.8-0.8-1.5-1.8-1.9-2.9c-0.6-1.5-0.9-3.1-0.9-4.7C4.7,33,4.7,32.2,4.7,25.4s0-7.6,0.1-10.3c0-1.6,0.3-3.2,0.9-4.7
			c0.3-1,1-2,1.8-2.9c0.9-0.8,1.9-1.5,3-1.9C12,5,13.6,4.7,15.2,4.7C17.9,4.6,18.7,4.6,25.5,4.6 M25.5,0C18.6,0,17.7,0,15,0.2
			c-2.1,0-4.2,0.4-6.2,1.2C7.1,2,5.6,3,4.3,4.3S2,7.1,1.3,8.8c-0.7,2-1.1,4.1-1.2,6.2C0,17.7,0,18.6,0,25.5S0,33.3,0.2,36
			c0,2.1,0.4,4.2,1.2,6.2C2,43.9,3,45.5,4.3,46.7c1.3,1.3,2.8,2.3,4.5,3c2,0.7,4.1,1.1,6.2,1.2C17.7,51,18.6,51,25.5,51
			s7.8,0,10.5-0.2c2.1,0,4.2-0.4,6.2-1.2c3.4-1.3,6.1-4,7.5-7.5c0.7-2,1.1-4.1,1.2-6.2C51,33.3,51,32.4,51,25.5s0-7.8-0.2-10.5
			c0-2.1-0.4-4.2-1.2-6.2C49,7.1,48,5.6,46.7,4.3c-1.2-1.3-2.8-2.3-4.5-3c-2-0.7-4.1-1.1-6.2-1.2C33.3,0,32.4,0,25.5,0L25.5,0z"/>
		<path class="st0" d="M25.5,12.4c-7.2,0-13.1,5.9-13.1,13.1s5.9,13.1,13.1,13.1s13.1-5.9,13.1-13.1S32.7,12.4,25.5,12.4L25.5,12.4z
			 M25.5,34c-4.7,0-8.5-3.8-8.5-8.5s3.8-8.5,8.5-8.5s8.5,3.8,8.5,8.5l0,0C34,30.2,30.2,34,25.5,34z"/>
		<circle class="st0" cx="39.1" cy="11.9" r="3.1"/>
	</g>
</g>
</svg>
