<?xml version="1.0" encoding="utf-8"?>
<!-- Generator: Adobe Illustrator 23.0.2, SVG Export Plug-In . SVG Version: 6.00 Build 0)  -->
<svg version="1.1" id="Layer_1" xmlns="http://www.w3.org/2000/svg" xmlns:xlink="http://www.w3.org/1999/xlink" x="0px" y="0px"
	 viewBox="0 0 42.8 26.8" style="enable-background:new 0 0 42.8 26.8;" xml:space="preserve">
<style type="text/css">
	.st0{fill:#F2F2F2;}
</style>
<title>be</title>
<g id="bbe36656-6ca7-4e7b-8ba3-37c5343fdc62">
	<g id="aeb5c75b-f460-4b9c-bf03-779955cfeb00">
		<path class="st0" d="M12.4,0c1.2,0,2.3,0.1,3.4,0.3c0.9,0.2,1.9,0.6,2.7,1.1c0.7,0.5,1.3,1.2,1.7,2c0.4,1,0.6,2,0.6,3.1
			c0,1.2-0.3,2.3-0.9,3.3c-0.7,1-1.6,1.7-2.7,2.2c1.5,0.4,2.7,1.2,3.6,2.5c0.8,1.3,1.2,2.7,1.2,4.2c0,1.2-0.2,2.4-0.8,3.5
			c-0.5,0.9-1.2,1.8-2.1,2.4s-1.9,1.1-3,1.4s-2.3,0.4-3.4,0.4H0V0H12.4 M11.7,10.6c0.9,0,1.8-0.2,2.6-0.7c0.7-0.6,1.1-1.5,1-2.4
			c0-0.5-0.1-1-0.3-1.5c-0.2-0.4-0.5-0.7-0.9-0.9c-0.4-0.2-0.8-0.4-1.3-0.5s-1-0.1-1.5-0.1H5.8v6.2h5.9V10.6z M12,21.9
			c0.5,0,1.1-0.1,1.6-0.2s1-0.3,1.4-0.6c0.4-0.3,0.7-0.6,0.9-1.1c0.3-0.5,0.4-1.1,0.3-1.7c0.1-1.1-0.3-2.2-1.1-2.9
			c-0.9-0.6-1.9-0.9-3-0.9H5.8v7.3H12V21.9z"/>
		<path class="st0" d="M30.3,21.8c0.9,0.8,2.1,1.2,3.4,1.2c1,0,1.9-0.3,2.7-0.8c0.6-0.4,1.1-1,1.4-1.7h4.6c-0.5,2-1.7,3.7-3.4,4.9
			c-1.7,1-3.6,1.5-5.5,1.5c-1.4,0-2.8-0.2-4.1-0.7c-1.2-0.5-2.2-1.2-3.1-2.1s-1.5-2-1.9-3.2c-0.5-1.3-0.7-2.7-0.7-4.1s0.2-2.7,0.7-4
			c0.9-2.4,2.7-4.3,5.1-5.3c1.3-0.5,2.6-0.8,4-0.8c1.5,0,2.9,0.3,4.2,0.9c1.2,0.6,2.2,1.5,3,2.5c0.8,1.1,1.4,2.3,1.7,3.6
			c0.3,1.4,0.5,2.8,0.4,4.2H29C29,19.4,29.4,20.7,30.3,21.8 M36.3,11.7c-0.8-0.8-1.9-1.1-3-1.1c-0.7,0-1.4,0.1-2.1,0.4
			c-0.5,0.3-1,0.6-1.3,1.1c-0.3,0.4-0.6,0.9-0.7,1.3c-0.1,0.4-0.2,0.8-0.2,1.3h8.5C37.5,13.7,37.1,12.6,36.3,11.7z"/>
		<rect x="27.9" y="1.8" class="st0" width="10.7" height="2.6"/>
	</g>
</g>
</svg>
