<svg xmlns="http://www.w3.org/2000/svg" viewBox="0 0 42.8134 26.82901"><title>be</title><g id="bbe36656-6ca7-4e7b-8ba3-37c5343fdc62" data-name="Layer 2"><g id="aeb5c75b-f460-4b9c-bf03-779955cfeb00" data-name="Layer 1"><path d="M12.416,0a16.206,16.206,0,0,1,3.435.334,7.4778,7.4778,0,0,1,2.66,1.087A5.08624,5.08624,0,0,1,20.23,3.429a7.08231,7.08231,0,0,1,.603,3.09,5.76986,5.76986,0,0,1-.903,3.318,6.54856,6.54856,0,0,1-2.687,2.172,6.28893,6.28893,0,0,1,3.617,2.453,7.31354,7.31354,0,0,1,1.191,4.227,7.30133,7.30133,0,0,1-.766,3.452,6.72175,6.72175,0,0,1-2.083,2.385,9.16,9.16,0,0,1-2.996,1.366,13.36971,13.36971,0,0,1-3.442.443H0V0H12.416m-.75,10.64a4.19357,4.19357,0,0,0,2.551-.739,2.76692,2.76692,0,0,0,.991-2.395,3.12834,3.12834,0,0,0-.324-1.512,2.39079,2.39079,0,0,0-.893-.916,3.60133,3.60133,0,0,0-1.277-.462,7.73235,7.73235,0,0,0-1.491-.13H5.798V10.64Zm.32,11.21a7.46406,7.46406,0,0,0,1.626-.165,3.85536,3.85536,0,0,0,1.366-.559,2.78871,2.78871,0,0,0,.943-1.051,3.64542,3.64542,0,0,0,.346-1.707,3.43864,3.43864,0,0,0-1.141-2.906,4.89246,4.89246,0,0,0-3.024-.864H5.798V21.85Z"/><path d="M30.317,21.762a4.65869,4.65869,0,0,0,3.387,1.152,4.67091,4.67091,0,0,0,2.735-.8,3.36712,3.36712,0,0,0,1.4-1.69h4.612a8.74552,8.74552,0,0,1-3.401,4.92,9.8924,9.8924,0,0,1-5.521,1.485,10.9962,10.9962,0,0,1-4.067-.722,8.65638,8.65638,0,0,1-3.08-2.051,9.3849,9.3849,0,0,1-1.936-3.177,11.65207,11.65207,0,0,1-.685-4.065,11.208,11.208,0,0,1,.704-3.989,9.244,9.244,0,0,1,5.087-5.321,9.90445,9.90445,0,0,1,3.977-.776,9.02121,9.02121,0,0,1,4.237.943,8.44389,8.44389,0,0,1,2.974,2.526,10.37129,10.37129,0,0,1,1.676,3.619,13.5267,13.5267,0,0,1,.364,4.246H29.02a5.33839,5.33839,0,0,0,1.297,3.7m6.018-10.018a3.91921,3.91921,0,0,0-2.963-1.062,4.50045,4.50045,0,0,0-2.084.428,4.19586,4.19586,0,0,0-1.326,1.051,3.75864,3.75864,0,0,0-.703,1.343,6.062,6.062,0,0,0-.239,1.257h8.522A5.098,5.098,0,0,0,36.335,11.744Z"/><rect x="27.949" y="1.767" width="10.675" height="2.599"/></g></g></svg>