<svg xmlns="http://www.w3.org/2000/svg" viewBox="0 0 51.01765 51.01765"><title>ig</title><g id="b37c0c68-7129-4b9a-be05-5e6b66302b44" data-name="Layer 2"><g id="b7395716-e941-42f2-a96a-cfa182d5554c" data-name="Layer 1"><path d="M25.50883,4.59618c6.81116,0,7.61791.026,10.30773.1487a14.1149,14.1149,0,0,1,4.73665.87835,7.90353,7.90353,0,0,1,2.933,1.90815,7.90331,7.90331,0,0,1,1.90819,2.93307,14.1147,14.1147,0,0,1,.87835,4.7366c.12272,2.68986.1487,3.49662.1487,10.30778s-.026,7.61791-.1487,10.30773a14.1149,14.1149,0,0,1-.87835,4.73665,8.44761,8.44761,0,0,1-4.84121,4.84121,14.1149,14.1149,0,0,1-4.73665.87835c-2.68943.12272-3.49611.1487-10.30773.1487s-7.61831-.026-10.30774-.1487a14.11477,14.11477,0,0,1-4.73664-.87835,7.90324,7.90324,0,0,1-2.933-1.90815,7.90348,7.90348,0,0,1-1.90819-2.93306,14.11485,14.11485,0,0,1-.87835-4.73662c-.12272-2.68985-.1487-3.4966-.1487-10.30776s.026-7.61792.1487-10.30774a14.11477,14.11477,0,0,1,.87835-4.73664,7.90349,7.90349,0,0,1,1.90815-2.933,7.90356,7.90356,0,0,1,2.93307-1.90819,14.1147,14.1147,0,0,1,4.7366-.87835c2.68986-.12272,3.49662-.1487,10.30778-.1487m0-4.59618C18.581,0,17.71235.02934,14.99158.15348a18.72337,18.72337,0,0,0-6.192,1.1857A12.50415,12.50415,0,0,0,4.2814,4.2814,12.50415,12.50415,0,0,0,1.33918,8.79954a18.72337,18.72337,0,0,0-1.1857,6.192C.02934,17.71235,0,18.581,0,25.50883s.02934,7.79646.15348,10.51724a18.72337,18.72337,0,0,0,1.1857,6.192A12.50423,12.50423,0,0,0,4.2814,46.73625a12.50389,12.50389,0,0,0,4.51814,2.94222,18.72311,18.72311,0,0,0,6.192,1.1857c2.72077.12416,3.58945.15348,10.51725.15348s7.79646-.02932,10.51724-.15348a18.72311,18.72311,0,0,0,6.192-1.1857,13.04366,13.04366,0,0,0,7.46036-7.46036,18.72311,18.72311,0,0,0,1.1857-6.192c.12414-2.72078.15348-3.58945.15348-10.51724s-.02934-7.79648-.15348-10.51725a18.72311,18.72311,0,0,0-1.1857-6.192A12.50389,12.50389,0,0,0,46.73625,4.2814a12.50415,12.50415,0,0,0-4.51814-2.94222,18.72337,18.72337,0,0,0-6.192-1.1857C33.30529.02934,32.43662,0,25.50883,0Z"/><path d="M25.50883,12.4097A13.09913,13.09913,0,1,0,38.608,25.50883,13.09912,13.09912,0,0,0,25.50883,12.4097Zm0,21.60206a8.50294,8.50294,0,1,1,8.50294-8.50293A8.50294,8.50294,0,0,1,25.50883,34.01176Z"/><circle cx="39.1255" cy="11.89215" r="3.06106"/></g></g></svg>