<?xml version="1.0" encoding="utf-8"?>
<!-- Generator: Adobe Illustrator 23.0.2, SVG Export Plug-In . SVG Version: 6.00 Build 0)  -->
<svg version="1.1" id="Layer_1" xmlns="http://www.w3.org/2000/svg" xmlns:xlink="http://www.w3.org/1999/xlink" x="0px" y="0px"
	 viewBox="0 0 25.8 25.7" style="enable-background:new 0 0 25.8 25.7;" xml:space="preserve">
<style type="text/css">
	.st0{fill:#F2F2F2;}
</style>
<title>in</title>
<g id="a2af1572-cc5f-4ca4-9a87-8190fe6d606d">
	<g id="f54900bd-fb4b-475e-b1c4-51678fcba230">
		<rect x="0.4" y="8.5" class="st0" width="5.3" height="17.2"/>
		<path class="st0" d="M3.1,6.2C1.4,6.2,0,4.8,0,3.1S1.4,0,3.1,0s3.1,1.4,3.1,3.1l0,0C6.2,4.8,4.8,6.2,3.1,6.2L3.1,6.2z"/>
		<path class="st0" d="M25.8,25.7h-5.3v-8.4c0-2,0-4.6-2.8-4.6s-3.2,2.2-3.2,4.4v8.5H9.1V8.5h5.1v2.3h0.1c1-1.8,3-2.9,5.1-2.8
			c5.4,0,6.4,3.6,6.4,8.2L25.8,25.7z"/>
	</g>
</g>
</svg>
