<svg width="32" height="32" viewBox="0 0 32 32" fill="none" xmlns="http://www.w3.org/2000/svg">
<path d="M29 8.36308C28.039 8.76923 27.013 9.04 25.9351 9.16308C27.039 8.53538 27.8831 7.55077 28.2727 6.36923C27.2468 6.94769 26.1039 7.36615 24.8831 7.6C23.9091 6.61538 22.5325 6 20.987 6C18.039 6 15.6623 8.26462 15.6623 11.0462C15.6623 11.44 15.7143 11.8215 15.8052 12.2031C11.3766 11.9938 7.45455 9.98769 4.81818 6.92308C4.36364 7.67385 4.09091 8.53538 4.09091 9.45846C4.09091 11.2062 5.02597 12.7569 6.46753 13.6677C5.5974 13.6431 4.76623 13.4092 4.05195 13.04C4.05195 13.0646 4.05195 13.0769 4.05195 13.1015C4.05195 15.5508 5.88312 17.5938 8.32468 18.0492C7.88312 18.16 7.4026 18.2215 6.92208 18.2215C6.58442 18.2215 6.24675 18.1846 5.92208 18.1354C6.5974 20.1415 8.57143 21.6062 10.8961 21.6431C9.07792 22.9969 6.77922 23.8092 4.27273 23.8092C3.84416 23.8092 3.41558 23.7846 3 23.7354C5.36364 25.1631 8.15584 26 11.1688 26C20.974 26 26.3247 18.3077 26.3247 11.6369C26.3247 11.4154 26.3247 11.2062 26.3117 10.9846C27.3766 10.2708 28.2857 9.38462 29 8.36308Z" fill="#001C3D"/>
</svg>
