<svg width="102" height="73" viewBox="0 0 102 73" fill="none" xmlns="http://www.w3.org/2000/svg">
<path d="M19.2467 47.3455C17.7196 47.3455 16.7399 48.1522 15.9043 49.3624C15.4433 47.8065 14.3196 47.3455 13.1671 47.3455C11.6399 47.3455 10.6891 48.2675 9.88231 49.4488L9.70943 47.6624H7.83655V62.8472H10.0552V51.0624C10.8908 49.7658 11.7552 49.2472 12.706 49.2472C13.801 49.2472 13.8874 50.0251 13.8874 51.9556V62.8472H16.1349V51.0624C16.9704 49.7658 17.8637 49.2472 18.7857 49.2472C19.8806 49.2472 19.9671 50.0251 19.9671 51.9556V62.8472H22.1857V51.5522C22.1857 48.0658 20.7162 47.3455 19.2467 47.3455Z" fill="#ECEEF0"/>
<path d="M38.8575 59.5336V52.2438C38.8575 49.2472 36.9558 47.3455 33.1812 47.3455C31.6829 47.3455 30.0694 47.6336 28.1965 48.2963L28.8592 50.1404C30.4151 49.5929 31.7982 49.3624 32.8067 49.3624C35.0541 49.3624 36.4083 50.1692 36.4083 52.3878V53.6268H34.1609C29.5795 53.6268 27.0728 55.3844 27.0728 58.4963C27.0728 61.32 28.9168 63.1641 31.9711 63.1641C33.9304 63.1641 35.6304 62.4438 36.7253 61.0319C37.1287 62.415 38.1948 63.02 39.4914 63.1929L40.0965 61.4641C39.2321 61.2048 38.8575 60.7438 38.8575 59.5336ZM32.5761 61.3489C30.588 61.3489 29.666 60.3692 29.666 58.4675C29.666 56.5082 30.8761 55.298 34.2185 55.298H36.4083V59.1878C35.5151 60.5421 34.0744 61.3489 32.5761 61.3489Z" fill="#ECEEF0"/>
<path d="M46.6835 62.8472H49.1039V51.8116C49.9106 50.6014 51.4378 49.276 53.2242 49.276C55.5005 49.276 55.8174 50.515 55.8174 53.6268V62.8472H58.2378V51.8404C58.2378 49.0166 56.9412 47.3455 53.9734 47.3455C52.1869 47.3455 50.17 48.2387 48.9598 49.7946L48.7581 47.6624H46.6835V62.8472Z" fill="#ECEEF0"/>
<path d="M65.4011 62.8472H67.8214V51.8116C68.6282 50.6014 70.1553 49.276 71.9418 49.276C74.218 49.276 74.535 50.515 74.535 53.6268V62.8472H76.9553V51.8404C76.9553 49.0166 75.6587 47.3455 72.6909 47.3455C70.9045 47.3455 68.8875 48.2387 67.6774 49.7946L67.4757 47.6624H65.4011V62.8472Z" fill="#ECEEF0"/>
<path d="M96.739 47.6624H94.2322L89.939 61.0031L85.5881 47.6624H83.0237L88.2966 62.8472H89.1034C88.3254 65.1811 87.4034 66.4777 84.2915 67.0251L84.6373 68.9556C88.6712 68.5234 90.3712 66.0455 91.4373 62.9336L96.739 47.6624Z" fill="#ECEEF0"/>
<path d="M15.0113 28.0693C13.974 28.0693 13.2825 27.349 13.2825 26.3693C13.2825 25.3897 13.974 24.6693 15.0113 24.6693C16.0774 24.6693 16.7977 25.3897 16.7977 26.3693C16.7977 27.349 16.0774 28.0693 15.0113 28.0693ZM16.9418 20.9812H9.99771V19.0507H14.5214V7.72696H9.85364V5.79645H21.2062V7.72696H16.9418V20.9812Z" fill="#ECEEF0"/>
<path d="M30.5593 27.3778L28.139 27.0897V5.79645H30.5593V27.3778ZM40.6729 20.9812H37.561L30.8187 14.0948L38.2814 5.79645H41.4797L33.8729 14.1236L40.6729 20.9812Z" fill="#ECEEF0"/>
<path d="M52.4752 21.2981C48.2108 21.2981 45.9057 18.0422 45.9057 13.3744C45.9057 8.59137 48.182 5.47951 52.4464 5.47951C56.682 5.47951 58.9871 8.73544 58.9871 13.4032C58.9871 18.1863 56.7396 21.2981 52.4752 21.2981ZM52.4752 19.31C55.0684 19.31 56.365 17.4083 56.365 13.4032C56.365 9.34052 55.0684 7.46764 52.4464 7.46764C49.8243 7.46764 48.5277 9.34052 48.5277 13.3744C48.5277 17.4083 49.8532 19.31 52.4752 19.31Z" fill="#ECEEF0"/>
<path d="M75.3995 21.2981C73.8724 21.2981 72.8927 20.4914 72.0572 19.2812C71.5961 20.8371 70.4724 21.2981 69.3199 21.2981C67.7928 21.2981 66.8419 20.3761 66.0351 19.1948L65.8622 20.9812H63.9894V5.79645H66.208V17.5812C67.0436 18.8778 67.908 19.3965 68.8589 19.3965C69.9538 19.3965 70.0402 18.6185 70.0402 16.688V5.79645H72.2877V17.5812C73.1233 18.8778 74.0165 19.3965 74.9385 19.3965C76.0334 19.3965 76.1199 18.6185 76.1199 16.688V5.79645H78.3385V17.0914C78.3385 20.5778 76.869 21.2981 75.3995 21.2981Z" fill="#ECEEF0"/>
<path d="M89.8815 28.0693C88.8442 28.0693 88.1527 27.349 88.1527 26.3693C88.1527 25.3897 88.8442 24.6693 89.8815 24.6693C90.9476 24.6693 91.6679 25.3897 91.6679 26.3693C91.6679 27.349 90.9476 28.0693 89.8815 28.0693ZM91.812 20.9812H84.8679V19.0507H89.3917V7.72696H84.7239V5.79645H96.0764V7.72696H91.812V20.9812Z" fill="#ECEEF0"/>
<path fill-rule="evenodd" clip-rule="evenodd" d="M0.000193645 72.0678L0.000190496 0.0339356L1.729 0.0339355L1.72901 72.0678L0.000193645 72.0678Z" fill="#FFD44A"/>
<path fill-rule="evenodd" clip-rule="evenodd" d="M0 35.1867L102 35.1867V36.9155L0 36.9155V35.1867Z" fill="#FFD44A"/>
</svg>
