<svg width="102" height="73" viewBox="0 0 102 73" fill="none" xmlns="http://www.w3.org/2000/svg">
<path d="M19.2467 47.3115C17.7196 47.3115 16.7399 48.1183 15.9043 49.3285C15.4433 47.7725 14.3196 47.3115 13.1671 47.3115C11.6399 47.3115 10.6891 48.2336 9.88231 49.4149L9.70943 47.6285H7.83655V62.8132H10.0552V51.0285C10.8908 49.7319 11.7552 49.2132 12.706 49.2132C13.801 49.2132 13.8874 49.9912 13.8874 51.9217V62.8132H16.1349V51.0285C16.9704 49.7319 17.8637 49.2132 18.7857 49.2132C19.8806 49.2132 19.9671 49.9912 19.9671 51.9217V62.8132H22.1857V51.5183C22.1857 48.0319 20.7162 47.3115 19.2467 47.3115Z" fill="#00234D"/>
<path d="M38.8575 59.4997V52.2098C38.8575 49.2132 36.9558 47.3115 33.1812 47.3115C31.6829 47.3115 30.0694 47.5997 28.1965 48.2624L28.8592 50.1064C30.4151 49.559 31.7982 49.3285 32.8066 49.3285C35.0541 49.3285 36.4083 50.1353 36.4083 52.3539V53.5929H34.1609C29.5795 53.5929 27.0728 55.3505 27.0728 58.4624C27.0728 61.2861 28.9168 63.1302 31.9711 63.1302C33.9304 63.1302 35.6304 62.4098 36.7253 60.998C37.1287 62.381 38.1948 62.9861 39.4914 63.159L40.0965 61.4302C39.2321 61.1708 38.8575 60.7098 38.8575 59.4997ZM32.5761 61.3149C30.588 61.3149 29.666 60.3353 29.666 58.4336C29.666 56.4742 30.8761 55.2641 34.2185 55.2641H36.4083V59.1539C35.5151 60.5081 34.0744 61.3149 32.5761 61.3149Z" fill="#00234D"/>
<path d="M46.6835 62.8132H49.1039V51.7776C49.9106 50.5675 51.4378 49.242 53.2242 49.242C55.5005 49.242 55.8174 50.481 55.8174 53.5929V62.8132H58.2378V51.8064C58.2378 48.9827 56.9412 47.3115 53.9734 47.3115C52.1869 47.3115 50.17 48.2047 48.9598 49.7607L48.7581 47.6285H46.6835V62.8132Z" fill="#00234D"/>
<path d="M65.4011 62.8132H67.8214V51.7776C68.6282 50.5675 70.1553 49.242 71.9418 49.242C74.218 49.242 74.535 50.481 74.535 53.5929V62.8132H76.9553V51.8064C76.9553 48.9827 75.6587 47.3115 72.6909 47.3115C70.9045 47.3115 68.8875 48.2047 67.6774 49.7607L67.4757 47.6285H65.4011V62.8132Z" fill="#00234D"/>
<path d="M96.739 47.6285H94.2322L89.939 60.9692L85.5881 47.6285H83.0237L88.2966 62.8132H89.1034C88.3254 65.1471 87.4034 66.4437 84.2915 66.9912L84.6373 68.9217C88.6712 68.4895 90.3712 66.0115 91.4373 62.8997L96.739 47.6285Z" fill="#00234D"/>
<path d="M15.0113 28.0354C13.974 28.0354 13.2825 27.3151 13.2825 26.3354C13.2825 25.3557 13.974 24.6354 15.0113 24.6354C16.0774 24.6354 16.7977 25.3557 16.7977 26.3354C16.7977 27.3151 16.0774 28.0354 15.0113 28.0354ZM16.9418 20.9473H9.99771V19.0168H14.5214V7.69303H9.85364V5.76252H21.2062V7.69303H16.9418V20.9473Z" fill="#00234D"/>
<path d="M30.5593 27.3439L28.139 27.0557V5.76252H30.5593V27.3439ZM40.6729 20.9473H37.561L30.8187 14.0608L38.2814 5.76252H41.4797L33.8729 14.0896L40.6729 20.9473Z" fill="#00234D"/>
<path d="M52.4752 21.2642C48.2108 21.2642 45.9057 18.0083 45.9057 13.3405C45.9057 8.55743 48.182 5.44557 52.4464 5.44557C56.682 5.44557 58.9871 8.7015 58.9871 13.3693C58.9871 18.1523 56.7396 21.2642 52.4752 21.2642ZM52.4752 19.2761C55.0684 19.2761 56.365 17.3744 56.365 13.3693C56.365 9.30659 55.0684 7.43371 52.4464 7.43371C49.8243 7.43371 48.5277 9.30659 48.5277 13.3405C48.5277 17.3744 49.8532 19.2761 52.4752 19.2761Z" fill="#00234D"/>
<path d="M75.3995 21.2642C73.8724 21.2642 72.8928 20.4574 72.0572 19.2473C71.5961 20.8032 70.4724 21.2642 69.3199 21.2642C67.7928 21.2642 66.8419 20.3422 66.0351 19.1608L65.8622 20.9473H63.9894V5.76252H66.208V17.5473C67.0436 18.8439 67.908 19.3625 68.8589 19.3625C69.9538 19.3625 70.0402 18.5846 70.0402 16.654V5.76252H72.2877V17.5473C73.1233 18.8439 74.0165 19.3625 74.9385 19.3625C76.0334 19.3625 76.1199 18.5846 76.1199 16.654V5.76252H78.3385V17.0574C78.3385 20.5439 76.869 21.2642 75.3995 21.2642Z" fill="#00234D"/>
<path d="M89.8815 28.0354C88.8442 28.0354 88.1527 27.3151 88.1527 26.3354C88.1527 25.3557 88.8442 24.6354 89.8815 24.6354C90.9476 24.6354 91.6679 25.3557 91.6679 26.3354C91.6679 27.3151 90.9476 28.0354 89.8815 28.0354ZM91.812 20.9473H84.8679V19.0168H89.3917V7.69303H84.7239V5.76252H96.0764V7.69303H91.812V20.9473Z" fill="#00234D"/>
<path fill-rule="evenodd" clip-rule="evenodd" d="M0.000193705 72.0339L0.000190556 7.55688e-08L1.729 0L1.72901 72.0339L0.000193705 72.0339Z" fill="#FFD44A"/>
<path fill-rule="evenodd" clip-rule="evenodd" d="M1.78814e-06 35.1528L102 35.1528V36.8816L1.78814e-06 36.8816V35.1528Z" fill="#FFD44A"/>
</svg>
