<svg width="401" height="258" viewBox="0 0 401 258" fill="none" xmlns="http://www.w3.org/2000/svg">
<path d="M28.1988 170.75C25.3988 170.75 23.7988 169.3 22.3988 167.15C21.5488 170 19.4488 170.75 17.4488 170.75C14.6988 170.75 12.9988 169.05 11.6488 167.05L11.4488 170.25H8.94883V144H11.8988V164.7C13.4988 167.25 15.1988 168.3 17.0488 168.3C19.1988 168.3 19.2988 166.7 19.2988 162.95V144H22.7488V164.7C24.2988 167.25 26.0988 168.3 27.8988 168.3C30.0488 168.3 30.1488 166.7 30.1488 162.95V144H33.1488V163.6C33.1488 169.8 30.3488 170.75 28.1988 170.75ZM69.3293 149.2V162.5C69.3293 167.45 66.1293 170.75 59.9793 170.75C57.5293 170.75 55.0793 170.3 51.8793 169.15L52.8293 166.6C55.5293 167.55 57.7793 167.95 59.5293 167.95C63.5793 167.95 66.0793 166.5 66.0793 162.35V159.85H62.1293C54.2293 159.85 49.9793 156.9 49.9793 151.55C49.9793 146.65 53.0793 143.5 58.3293 143.5C61.7793 143.5 64.5793 144.8 66.4293 147.25C67.0293 144.85 68.7293 143.75 70.7293 143.45L71.5793 145.75C70.0293 146.2 69.3293 147.05 69.3293 149.2ZM58.8793 145.95C55.1293 145.95 53.3793 147.8 53.3793 151.45C53.3793 155.1 55.5293 157.45 61.7293 157.45H66.0793V149.95C64.3793 147.45 61.7793 145.95 58.8793 145.95ZM91.4598 144H94.5598V163.35C95.9098 165.45 98.9098 168.15 102.41 168.15C107.01 168.15 107.51 165.65 107.51 159.65V144H110.61V163C110.61 167.85 108.51 170.75 103.16 170.75C100.21 170.75 96.4098 169.15 94.3598 166.4L94.0598 170.25H91.4598V144ZM131.44 144H134.54V163.35C135.89 165.45 138.89 168.15 142.39 168.15C146.99 168.15 147.49 165.65 147.49 159.65V144H150.59V163C150.59 167.85 148.49 170.75 143.14 170.75C140.19 170.75 136.39 169.15 134.34 166.4L134.04 170.25H131.44V144ZM192.371 170.25H189.171L181.171 146.65L172.871 170.25H169.571L178.971 144H179.971C178.621 139.75 177.121 137.3 171.671 136.25L172.171 133.55C178.871 134.4 181.321 138.9 183.021 143.8L192.371 170.25Z" fill="#808080"/>
<path d="M28.1988 42.75C25.3988 42.75 23.7988 41.3 22.3988 39.15C21.5488 42 19.4488 42.75 17.4488 42.75C14.6988 42.75 12.9988 41.05 11.6488 39.05L11.4488 42.25H8.94883V16H11.8988V36.7C13.4988 39.25 15.1988 40.3 17.0488 40.3C19.1988 40.3 19.2988 38.7 19.2988 34.95V16H22.7488V36.7C24.2988 39.25 26.0988 40.3 27.8988 40.3C30.0488 40.3 30.1488 38.7 30.1488 34.95V16H33.1488V35.6C33.1488 41.8 30.3488 42.75 28.1988 42.75ZM69.3293 21.2V34.5C69.3293 39.45 66.1293 42.75 59.9793 42.75C57.5293 42.75 55.0793 42.3 51.8793 41.15L52.8293 38.6C55.5293 39.55 57.7793 39.95 59.5293 39.95C63.5793 39.95 66.0793 38.5 66.0793 34.35V31.85H62.1293C54.2293 31.85 49.9793 28.9 49.9793 23.55C49.9793 18.65 53.0793 15.5 58.3293 15.5C61.7793 15.5 64.5793 16.8 66.4293 19.25C67.0293 16.85 68.7293 15.75 70.7293 15.45L71.5793 17.75C70.0293 18.2 69.3293 19.05 69.3293 21.2ZM58.8793 17.95C55.1293 17.95 53.3793 19.8 53.3793 23.45C53.3793 27.1 55.5293 29.45 61.7293 29.45H66.0793V21.95C64.3793 19.45 61.7793 17.95 58.8793 17.95ZM91.4598 16H94.5598V35.35C95.9098 37.45 98.9098 40.15 102.41 40.15C107.01 40.15 107.51 37.65 107.51 31.65V16H110.61V35C110.61 39.85 108.51 42.75 103.16 42.75C100.21 42.75 96.4098 41.15 94.3598 38.4L94.0598 42.25H91.4598V16ZM131.44 16H134.54V35.35C135.89 37.45 138.89 40.15 142.39 40.15C146.99 40.15 147.49 37.65 147.49 31.65V16H150.59V35C150.59 39.85 148.49 42.75 143.14 42.75C140.19 42.75 136.39 41.15 134.34 38.4L134.04 42.25H131.44V16ZM192.371 42.25H189.171L181.171 18.65L172.871 42.25H169.571L178.971 16H179.971C178.621 11.75 177.121 9.3 171.671 8.25L172.171 5.55C178.871 6.4 181.321 10.9 183.021 15.8L192.371 42.25Z" fill="#808080"/>
<path d="M227.199 234.75C224.399 234.75 222.799 233.3 221.399 231.15C220.549 234 218.449 234.75 216.449 234.75C213.699 234.75 211.999 233.05 210.649 231.05L210.449 234.25H207.949V208H210.899V228.7C212.499 231.25 214.199 232.3 216.049 232.3C218.199 232.3 218.299 230.7 218.299 226.95V208H221.749V228.7C223.299 231.25 225.099 232.3 226.899 232.3C229.049 232.3 229.149 230.7 229.149 226.95V208H232.149V227.6C232.149 233.8 229.349 234.75 227.199 234.75ZM268.329 213.2V226.5C268.329 231.45 265.129 234.75 258.979 234.75C256.529 234.75 254.079 234.3 250.879 233.15L251.829 230.6C254.529 231.55 256.779 231.95 258.529 231.95C262.579 231.95 265.079 230.5 265.079 226.35V223.85H261.129C253.229 223.85 248.979 220.9 248.979 215.55C248.979 210.65 252.079 207.5 257.329 207.5C260.779 207.5 263.579 208.8 265.429 211.25C266.029 208.85 267.729 207.75 269.729 207.45L270.579 209.75C269.029 210.2 268.329 211.05 268.329 213.2ZM257.879 209.95C254.129 209.95 252.379 211.8 252.379 215.45C252.379 219.1 254.529 221.45 260.729 221.45H265.079V213.95C263.379 211.45 260.779 209.95 257.879 209.95ZM290.46 208H293.56V227.35C294.91 229.45 297.91 232.15 301.41 232.15C306.01 232.15 306.51 229.65 306.51 223.65V208H309.61V227C309.61 231.85 307.51 234.75 302.16 234.75C299.21 234.75 295.41 233.15 293.36 230.4L293.06 234.25H290.46V208ZM330.44 208H333.54V227.35C334.89 229.45 337.89 232.15 341.39 232.15C345.99 232.15 346.49 229.65 346.49 223.65V208H349.59V227C349.59 231.85 347.49 234.75 342.14 234.75C339.19 234.75 335.39 233.15 333.34 230.4L333.04 234.25H330.44V208ZM391.371 234.25H388.171L380.171 210.65L371.871 234.25H368.571L377.971 208H378.971C377.621 203.75 376.121 201.3 370.671 200.25L371.171 197.55C377.871 198.4 380.321 202.9 382.021 207.8L391.371 234.25Z" fill="#808080"/>
<path d="M227.199 106.75C224.399 106.75 222.799 105.3 221.399 103.15C220.549 106 218.449 106.75 216.449 106.75C213.699 106.75 211.999 105.05 210.649 103.05L210.449 106.25H207.949V80H210.899V100.7C212.499 103.25 214.199 104.3 216.049 104.3C218.199 104.3 218.299 102.7 218.299 98.95V80H221.749V100.7C223.299 103.25 225.099 104.3 226.899 104.3C229.049 104.3 229.149 102.7 229.149 98.95V80H232.149V99.6C232.149 105.8 229.349 106.75 227.199 106.75ZM268.329 85.2V98.5C268.329 103.45 265.129 106.75 258.979 106.75C256.529 106.75 254.079 106.3 250.879 105.15L251.829 102.6C254.529 103.55 256.779 103.95 258.529 103.95C262.579 103.95 265.079 102.5 265.079 98.35V95.85H261.129C253.229 95.85 248.979 92.9 248.979 87.55C248.979 82.65 252.079 79.5 257.329 79.5C260.779 79.5 263.579 80.8 265.429 83.25C266.029 80.85 267.729 79.75 269.729 79.45L270.579 81.75C269.029 82.2 268.329 83.05 268.329 85.2ZM257.879 81.95C254.129 81.95 252.379 83.8 252.379 87.45C252.379 91.1 254.529 93.45 260.729 93.45H265.079V85.95C263.379 83.45 260.779 81.95 257.879 81.95ZM290.46 80H293.56V99.35C294.91 101.45 297.91 104.15 301.41 104.15C306.01 104.15 306.51 101.65 306.51 95.65V80H309.61V99C309.61 103.85 307.51 106.75 302.16 106.75C299.21 106.75 295.41 105.15 293.36 102.4L293.06 106.25H290.46V80ZM330.44 80H333.54V99.35C334.89 101.45 337.89 104.15 341.39 104.15C345.99 104.15 346.49 101.65 346.49 95.65V80H349.59V99C349.59 103.85 347.49 106.75 342.14 106.75C339.19 106.75 335.39 105.15 333.34 102.4L333.04 106.25H330.44V80ZM391.371 106.25H388.171L380.171 82.65L371.871 106.25H368.571L377.971 80H378.971C377.621 75.75 376.121 73.3 370.671 72.25L371.171 69.55C377.871 70.4 380.321 74.9 382.021 79.8L391.371 106.25Z" fill="#808080"/>
<path d="M21.0488 118.1C19.5488 118.1 18.5488 117.05 18.5488 115.65C18.5488 114.15 19.5488 113.1 21.0488 113.1C22.6488 113.1 23.6988 114.15 23.6988 115.65C23.6988 117.05 22.6488 118.1 21.0488 118.1ZM23.9988 106.25H12.8488V103.55H20.8988V82.7H12.5988V80H31.5988V82.7H23.9988V106.25ZM54.9793 117.3L51.8793 116.9V80H54.9793V117.3ZM72.6293 106.25H68.0293L55.4793 94.35L69.6793 80H74.1793L59.8793 94.35L72.6293 106.25ZM101.06 106.75C93.8598 106.75 90.1598 101.1 90.1598 93.1C90.1598 85 93.8098 79.5 101.01 79.5C108.16 79.5 111.86 85.3 111.86 93.15C111.86 101.4 108.26 106.75 101.06 106.75ZM101.06 104C105.96 104 108.46 100.5 108.46 93.15C108.46 85.8 105.96 82.25 101.01 82.25C96.0598 82.25 93.5598 85.8 93.5598 93.1C93.5598 100.5 96.1598 104 101.06 104ZM148.14 106.75C145.34 106.75 143.74 105.3 142.34 103.15C141.49 106 139.39 106.75 137.39 106.75C134.64 106.75 132.94 105.05 131.59 103.05L131.39 106.25H128.89V80H131.84V100.7C133.44 103.25 135.14 104.3 136.99 104.3C139.14 104.3 139.24 102.7 139.24 98.95V80H142.69V100.7C144.24 103.25 146.04 104.3 147.84 104.3C149.99 104.3 150.09 102.7 150.09 98.95V80H153.09V99.6C153.09 105.8 150.29 106.75 148.14 106.75ZM180.971 118.1C179.471 118.1 178.471 117.05 178.471 115.65C178.471 114.15 179.471 113.1 180.971 113.1C182.571 113.1 183.621 114.15 183.621 115.65C183.621 117.05 182.571 118.1 180.971 118.1ZM183.921 106.25H172.771V103.55H180.821V82.7H172.521V80H191.521V82.7H183.921V106.25Z" fill="#808080"/>
<path d="M21.0488 246.1C19.5488 246.1 18.5488 245.05 18.5488 243.65C18.5488 242.15 19.5488 241.1 21.0488 241.1C22.6488 241.1 23.6988 242.15 23.6988 243.65C23.6988 245.05 22.6488 246.1 21.0488 246.1ZM23.9988 234.25H12.8488V231.55H20.8988V210.7H12.5988V208H31.5988V210.7H23.9988V234.25ZM54.9793 245.3L51.8793 244.9V208H54.9793V245.3ZM72.6293 234.25H68.0293L55.4793 222.35L69.6793 208H74.1793L59.8793 222.35L72.6293 234.25ZM101.06 234.75C93.8598 234.75 90.1598 229.1 90.1598 221.1C90.1598 213 93.8098 207.5 101.01 207.5C108.16 207.5 111.86 213.3 111.86 221.15C111.86 229.4 108.26 234.75 101.06 234.75ZM101.06 232C105.96 232 108.46 228.5 108.46 221.15C108.46 213.8 105.96 210.25 101.01 210.25C96.0598 210.25 93.5598 213.8 93.5598 221.1C93.5598 228.5 96.1598 232 101.06 232ZM148.14 234.75C145.34 234.75 143.74 233.3 142.34 231.15C141.49 234 139.39 234.75 137.39 234.75C134.64 234.75 132.94 233.05 131.59 231.05L131.39 234.25H128.89V208H131.84V228.7C133.44 231.25 135.14 232.3 136.99 232.3C139.14 232.3 139.24 230.7 139.24 226.95V208H142.69V228.7C144.24 231.25 146.04 232.3 147.84 232.3C149.99 232.3 150.09 230.7 150.09 226.95V208H153.09V227.6C153.09 233.8 150.29 234.75 148.14 234.75ZM180.971 246.1C179.471 246.1 178.471 245.05 178.471 243.65C178.471 242.15 179.471 241.1 180.971 241.1C182.571 241.1 183.621 242.15 183.621 243.65C183.621 245.05 182.571 246.1 180.971 246.1ZM183.921 234.25H172.771V231.55H180.821V210.7H172.521V208H191.521V210.7H183.921V234.25Z" fill="#808080"/>
<path d="M220.049 182.1C218.549 182.1 217.549 181.05 217.549 179.65C217.549 178.15 218.549 177.1 220.049 177.1C221.649 177.1 222.699 178.15 222.699 179.65C222.699 181.05 221.649 182.1 220.049 182.1ZM222.999 170.25H211.849V167.55H219.899V146.7H211.599V144H230.599V146.7H222.999V170.25ZM253.979 181.3L250.879 180.9V144H253.979V181.3ZM271.629 170.25H267.029L254.479 158.35L268.679 144H273.179L258.879 158.35L271.629 170.25ZM300.06 170.75C292.86 170.75 289.16 165.1 289.16 157.1C289.16 149 292.81 143.5 300.01 143.5C307.16 143.5 310.86 149.3 310.86 157.15C310.86 165.4 307.26 170.75 300.06 170.75ZM300.06 168C304.96 168 307.46 164.5 307.46 157.15C307.46 149.8 304.96 146.25 300.01 146.25C295.06 146.25 292.56 149.8 292.56 157.1C292.56 164.5 295.16 168 300.06 168ZM347.14 170.75C344.34 170.75 342.74 169.3 341.34 167.15C340.49 170 338.39 170.75 336.39 170.75C333.64 170.75 331.94 169.05 330.59 167.05L330.39 170.25H327.89V144H330.84V164.7C332.44 167.25 334.14 168.3 335.99 168.3C338.14 168.3 338.24 166.7 338.24 162.95V144H341.69V164.7C343.24 167.25 345.04 168.3 346.84 168.3C348.99 168.3 349.09 166.7 349.09 162.95V144H352.09V163.6C352.09 169.8 349.29 170.75 347.14 170.75ZM379.971 182.1C378.471 182.1 377.471 181.05 377.471 179.65C377.471 178.15 378.471 177.1 379.971 177.1C381.571 177.1 382.621 178.15 382.621 179.65C382.621 181.05 381.571 182.1 379.971 182.1ZM382.921 170.25H371.771V167.55H379.821V146.7H371.521V144H390.521V146.7H382.921V170.25Z" fill="#808080"/>
<path d="M220.049 54.1C218.549 54.1 217.549 53.05 217.549 51.65C217.549 50.15 218.549 49.1 220.049 49.1C221.649 49.1 222.699 50.15 222.699 51.65C222.699 53.05 221.649 54.1 220.049 54.1ZM222.999 42.25H211.849V39.55H219.899V18.7H211.599V16H230.599V18.7H222.999V42.25ZM253.979 53.3L250.879 52.9V16H253.979V53.3ZM271.629 42.25H267.029L254.479 30.35L268.679 16H273.179L258.879 30.35L271.629 42.25ZM300.06 42.75C292.86 42.75 289.16 37.1 289.16 29.1C289.16 21 292.81 15.5 300.01 15.5C307.16 15.5 310.86 21.3 310.86 29.15C310.86 37.4 307.26 42.75 300.06 42.75ZM300.06 40C304.96 40 307.46 36.5 307.46 29.15C307.46 21.8 304.96 18.25 300.01 18.25C295.06 18.25 292.56 21.8 292.56 29.1C292.56 36.5 295.16 40 300.06 40ZM347.14 42.75C344.34 42.75 342.74 41.3 341.34 39.15C340.49 42 338.39 42.75 336.39 42.75C333.64 42.75 331.94 41.05 330.59 39.05L330.39 42.25H327.89V16H330.84V36.7C332.44 39.25 334.14 40.3 335.99 40.3C338.14 40.3 338.24 38.7 338.24 34.95V16H341.69V36.7C343.24 39.25 345.04 40.3 346.84 40.3C348.99 40.3 349.09 38.7 349.09 34.95V16H352.09V35.6C352.09 41.8 349.29 42.75 347.14 42.75ZM379.971 54.1C378.471 54.1 377.471 53.05 377.471 51.65C377.471 50.15 378.471 49.1 379.971 49.1C381.571 49.1 382.621 50.15 382.621 51.65C382.621 53.05 381.571 54.1 379.971 54.1ZM382.921 42.25H371.771V39.55H379.821V18.7H371.521V16H390.521V18.7H382.921V42.25Z" fill="#808080"/>
</svg>
